<?xml version="1.0" encoding="UTF-8" standalone="no"?>
<!DOCTYPE svg PUBLIC "-//W3C//DTD SVG 1.1//EN" "http://www.w3.org/Graphics/SVG/1.1/DTD/svg11.dtd">
<svg width="100%" height="100%" viewBox="0 0 714 714" version="1.1" xmlns="http://www.w3.org/2000/svg" xmlns:xlink="http://www.w3.org/1999/xlink" xml:space="preserve" xmlns:serif="http://www.serif.com/" style="fill-rule:evenodd;clip-rule:evenodd;stroke-linejoin:round;stroke-miterlimit:2;">
    <g>
        <path id="Curves" d="M41.277,522.843C36.855,527.16 32.999,531.931 29.727,537.318C24.205,546.384 15.732,554.982 5.249,561.766C3.363,563.002 1.609,563.964 0,564.676L0,540.598C4.763,535.051 9.622,529.696 14.392,524.508C28.039,509.665 41.726,496.261 58.139,484.921L58.422,484.316L66.435,479.224L66.204,479.689C68.441,478.361 70.732,477.112 73.091,475.97C85.309,470.095 93.723,470.001 96.378,475.478C98.344,479.654 95.052,484.6 86.522,491.134C82.047,494.561 77.222,497.768 72.241,500.919C67.754,503.759 63.269,506.781 58.652,509.586C56.191,511.084 53.84,512.639 51.588,514.253L51.061,514.169C47.583,516.188 44.456,518.911 41.512,521.999L41.277,522.843ZM39.308,586.189L39.333,586.408C39.876,585.592 40.408,584.767 40.934,583.939C41.216,583.495 41.496,583.05 41.775,582.604C43.006,580.637 44.215,578.655 45.457,576.704C51.099,567.833 54.622,559.276 56.946,550.95C58.056,546.971 59.294,542.969 61.077,538.79C66.649,525.841 76.847,517.802 80.77,523.19C83.798,527.303 82.526,535.333 80.097,544.399C75.657,560.816 68.687,577.239 57.808,592.986C54.385,597.947 50.988,603.047 47.964,608.585C47.803,608.88 47.646,609.173 47.493,609.464L47.432,609.473C45.914,612.163 44.638,615.259 43.701,618.917L43.693,618.902C43.608,619.239 43.53,619.572 43.46,619.902C43.308,620.614 43.192,621.308 43.111,621.985C42.684,625.563 43.253,628.642 44.829,631.271C46.669,634.379 48.75,637.264 51.675,638.741C53.487,639.678 55.256,639.584 56.865,638.604L56.722,638.443C58.12,637.42 59.225,636.178 60.108,634.77L60.193,634.867C61.467,632.622 62.498,629.605 63.158,625.905C64.018,621.159 64.546,616.554 65.413,611.91C66.203,607.661 67.625,603.515 70.564,600.813C73.723,597.918 75.903,598.555 77.501,601.1C78.432,602.582 78.945,604.692 79.04,607.203C79.398,616.759 79.48,627.015 77.813,638.56C77.323,641.953 76.643,645.201 75.727,648.243L76.006,648.417C75.733,649.525 75.466,650.541 75.3,651.006C75.101,651.565 74.702,652.406 74.29,653.222L73.981,653.035C72.706,656.009 71.139,658.718 69.177,661.052C64.407,666.762 62.224,673.813 62.185,682.491C62.172,684.846 62.054,687.268 61.934,689.69C61.555,697.128 60.192,703.929 55.723,707.903C50.931,712.188 46.615,711.595 43.06,707.072C39.441,702.479 38.343,695.6 37.769,688.419C37.878,685.419 38.091,682.378 37.66,679.747C37.948,672.128 36.167,666.762 33.765,662.42C28.913,653.618 25.601,644.312 24.529,632.966C23.335,620.822 26.3,607.972 35.218,592.913L35.182,592.706C36.437,590.499 37.812,588.327 39.308,586.189ZM114.269,654.298L114.6,654.183C114.534,649.926 114.978,645.504 115.837,640.978C116.559,637.181 117.629,633.657 118.986,630.56C124.952,616.972 132.034,608.376 139.808,605.098C142.942,603.803 145.541,604.768 147.571,607.651L147.793,607.645C148.734,609.218 149.553,610.883 150.277,612.619L149.937,612.617C150.881,615.46 151.597,618.995 152.067,623.174C152.585,627.83 152.778,632.629 152.722,636.091C152.679,642.581 153.067,647.764 152.79,652.951C152.469,659.032 151.197,663.542 148.398,664.54C141.997,666.843 135.842,671.383 129.455,675.593C125.232,678.399 120.771,677.286 117.635,669.754C116.259,666.445 115.388,662.943 114.946,659.294L114.658,659.384C114.407,657.717 114.283,656.021 114.269,654.298ZM160.396,608.291L160.833,608.348C158.43,599.866 157.323,590.182 157.871,580.557C158.514,569.26 159.399,560.447 161.771,552.271C163.417,546.602 165.471,541.36 168.756,541.41C172.19,541.477 174.491,545.076 175.968,551.094C176.621,553.762 176.295,556.969 175.77,559.868C174.521,566.75 175.437,572.458 177.364,578.062C179.48,584.216 181.646,590.726 183.977,597.459C185.396,601.559 186.646,606.068 187.609,611.037C187.998,613.036 188.261,614.937 188.407,616.735L188.743,616.901C188.795,618.73 188.763,620.654 188.674,622.481L188.429,622.351C188.083,626.256 186.912,629.366 184.819,631.424C181.38,634.839 177.461,634.072 173.556,630.771C169.04,626.979 165.286,620.941 162.568,613.652L162.209,613.595C161.641,612.016 161.015,610.193 160.396,608.291ZM255.847,656.531L255.872,656.502C254.486,656.289 252.947,655.646 251.316,654.67C242.898,649.673 234.675,640.325 227.786,627.901C220.992,615.692 219.308,602.956 222.035,594.366C224.535,586.709 228.708,587.731 232.937,596.685C234.17,599.287 235.321,602.169 236.581,604.932C237.85,607.717 239.263,610.258 240.872,612.214C243.812,615.775 245.863,615.585 246.866,611.543C248.051,606.822 248.142,600.892 248.723,595.648C249.245,590.841 249.828,586.176 250.77,582.085L250.688,581.888C251.436,579.339 252.261,576.827 253.174,574.475L253.24,574.663C254.849,571.362 256.991,569.718 260.607,572.928C265.114,576.957 270.069,587.199 272.167,596.19C272.38,597.12 272.529,598.039 272.714,598.968C274.988,612.085 275.5,623.552 273.059,633.037C272.292,636.044 270.702,637.626 268.618,638.132C267.776,638.339 267.01,638.688 266.317,639.182C266.01,641.796 265.608,644.396 265.087,646.967C264.516,649.79 263.744,652.861 262.35,655.691C260.182,656.54 258.015,656.863 255.847,656.531ZM250.734,542.538L250.838,542.354C250.5,542.178 250.161,542.004 249.824,541.814C245.648,539.474 242.378,541.052 239.951,546.68C239.13,548.606 238.248,550.462 237.388,552.368C233.369,561.671 227.863,560.676 222.874,548.718C220.634,543.292 219.646,536.781 220.132,529.807C220.246,527.627 220.661,525.205 221.301,522.989C222.271,519.638 223.373,517.521 225.712,517.693C230.117,518.027 234.008,515.008 237.657,510.801C245.09,502.472 254.002,506.789 260,519.206C261.312,521.897 262.218,524.61 262.751,527.313L263.04,527.024C263.251,527.77 263.566,528.984 263.629,529.761C263.696,530.573 263.695,532.162 263.678,533.532L263.265,533.978C263.199,535.371 263.04,536.758 262.751,538.129C261.64,543.495 259.397,545.776 255.771,544.499C255.653,544.458 255.534,544.409 255.415,544.365L255.203,544.735C254.215,544.303 252.278,543.328 250.734,542.538ZM289.601,502.673L289.756,502.516C288.489,502.157 287.176,500.988 285.881,498.911C282.599,493.591 278.983,490.041 274.791,487.643C271.97,486.027 269.449,483.659 267.924,479.543C265.676,473.505 268.057,467.807 272.774,467.731C274.801,467.694 276.785,468.198 278.76,468.75C283.026,469.945 286.196,468.249 288.577,463.285C290.913,458.445 293.492,453.83 296.283,449.421C296.574,448.961 296.884,448.52 297.206,448.092L297,447.735C298.283,446.228 299.532,445.092 300.793,444.27L300.956,444.543C303.421,443.072 305.576,443.566 307.705,446.003C312.224,451.189 312.899,458.275 310.003,465.111C309.819,465.546 309.618,465.964 309.429,466.393C309.463,466.606 309.495,466.818 309.526,467.029C308.106,470.354 306.504,473.756 304.542,477.313C304.608,476.897 304.665,476.479 304.715,476.058C304.213,477.034 303.71,478.011 303.215,478.994C302.766,479.884 302.309,480.766 301.851,481.648C300.984,483.32 300.117,484.994 299.311,486.726L299.832,487.21C299.029,488.943 298.277,490.725 297.548,492.526C297.287,493.171 297.029,493.818 296.772,494.467C296.967,494.206 297.16,493.944 297.35,493.682C297.02,495.754 296.017,501.356 294.628,502.507C293.664,503.305 291.397,503.049 289.601,502.673ZM272.186,422.828L271.766,422.574C271.146,423.657 270.535,424.747 269.945,425.856C267.35,430.775 267.818,433.756 271.124,436.754C272.33,437.854 273.608,438.865 274.766,440.062C278.595,444.089 277.621,450.967 273.015,454.686C270.687,456.569 268.205,457.401 265.755,456.91C262.287,456.22 260.096,458.312 258.489,462.886C256.51,468.592 253.621,471.044 249.926,470.339C246.058,469.629 244.012,465.663 244.763,459.626C245.254,455.739 246.657,452.195 247.981,448.705C248.484,447.373 249.002,446.055 249.521,444.745C251.767,439.113 251.923,434.652 249.09,430.878C245.68,426.418 246.751,419.374 251.647,413.939C251.778,413.794 251.914,413.666 252.048,413.53L251.432,413.318C253.42,412.15 255.448,411.061 257.544,410.146L257.954,410.303C257.971,410.299 257.987,410.294 258.004,410.291C262.406,409.372 265.725,406.759 268.369,402.607C269.977,400.612 271.608,398.653 273.255,396.735C277.885,393.542 280.704,394.246 282.725,399.03L282.898,400.083C283.146,404.306 280.939,407.933 278.572,411.583C277.156,413.765 275.74,415.971 274.356,418.218L274.759,418.461L272.186,422.828ZM237.743,409.347L237.111,409.193C235.63,410.247 234.123,411.284 232.563,412.292C229.427,414.328 226.773,414.767 224.822,413.004C222.027,410.499 218.195,411.357 213.762,414.103C212.132,415.111 210.473,416.057 208.825,416.894C204.51,419.106 201.92,418.607 200.525,415.284C199.137,412.14 200.014,407.581 202.293,403.16L201.721,403.086C202.615,401.424 203.631,399.838 204.773,398.441L205.269,398.507C208.092,394.856 211.775,391.753 215.732,390.283C219.05,389.026 221.533,389.365 222.959,391.301C223.646,392.236 224.098,393.379 224.627,394.459C226.413,398.113 230.065,398.215 234.916,394.885C239.099,392.031 242.211,388.437 244.94,384.579C246.231,382.746 247.561,380.944 249.261,379.397C251.76,377.125 254.526,375.472 257.439,376.273C260.37,377.094 261.286,379.4 260.937,382.36C260.68,384.559 259.618,386.718 258.124,388.777C253.536,395.097 248.247,400.472 242.256,405.298L242.797,405.441C241.265,406.794 239.608,408.124 237.743,409.347ZM177.394,400.028L177.121,399.991C176.155,403.179 177.407,404.686 180.741,404.386C182.45,404.241 184.309,403.8 186.032,403.612C190.335,403.158 192.078,405.21 191.446,409.453C190.806,413.705 188.19,417.861 183.714,421.65C181.599,423.441 179.427,425.168 177.245,426.826C172.712,430.273 169.294,434.603 167.16,440.27C165.082,445.783 161.906,451.169 157.767,456.275C152.457,462.828 145.474,467.133 141.511,466.034C138.149,465.074 137.471,459.09 140.255,452.395C142.086,447.988 144.589,443.7 147.319,439.523C150.103,435.266 152.984,431.133 155.169,426.987C158.596,420.487 159.425,415.652 157.352,412.423C156.884,411.701 156.222,411.162 155.612,410.565C153.086,408.199 154.113,403.904 157.563,399.777L157.149,399.829C159.022,397.785 161.141,395.905 163.422,394.287L163.979,394.266C164.808,393.739 165.665,393.23 166.577,392.764C169.543,391.248 172.219,390.502 174.917,389.885C175.822,389.755 176.826,389.588 177.777,389.505C180.685,389.261 181.387,390.641 180.01,393.687C179.78,394.198 179.528,394.715 179.27,395.234L179.394,395.25C178.561,396.843 177.887,398.435 177.394,400.028Z" style="fill:rgb(5,3,4);fill-rule:nonzero;"/>
        <path id="Curves1" serif:id="Curves" d="M410.906,118.872L410.92,118.928C411.429,119.858 411.957,120.768 412.537,121.634C416.377,127.513 421.01,132.963 424.892,139.908C428.68,146.862 432.077,154.214 433.647,161.332C433.847,162.208 433.978,163.046 434.057,163.848L434.174,164.16C433.973,166.691 433.518,169.21 432.429,170.679C431.887,171.409 431.37,171.623 430.881,171.662C428.97,171.449 426.152,169.152 422.033,164.886C417.903,160.488 414.094,155.615 410.958,150.76C407.021,144.704 403.923,138.806 401.209,133.06C398.243,126.693 396.186,122.818 393.677,121.945C392.401,121.497 391.147,121.168 389.616,119.928C385.556,115.884 378.929,107.895 371.946,99.707C363.087,88.847 359.339,76.992 362.189,68.625C363.591,63.422 367.645,63.575 376.718,68.985C388.099,75.574 398.24,88.151 403.034,99.61C405.697,107.671 408.33,114.428 410.906,118.872ZM453.686,70.508L453.741,70.519C453.941,64.417 452.191,55.451 446.893,42.569C445.609,40.123 444.174,37.712 442.626,35.324C432.759,21.952 430.821,14.013 433.84,5.861C436.477,5.761 439.103,5.665 441.728,5.561C451.676,10.989 459.371,25.884 463.794,38.587C468.481,51.831 469.897,62.884 473.385,73.122C474.594,77.456 475.794,81.718 476.38,86.223C477.913,97.821 479.539,110.039 480.433,122.318C480.777,128.357 479.863,132.63 478.252,135.324C476.615,136.938 474.886,138.169 473.16,139.163C470.022,140.341 466.579,140.645 461.744,137.169C455.868,133.101 450.052,122.308 446.208,108.913C442.751,97.374 442.084,90.194 444.677,85.166C445.749,83.269 447.035,82.189 448.263,81.539C449.653,80.941 450.97,79.829 451.967,78.043C453.181,76.261 453.764,73.761 453.686,70.508ZM496.546,160.631L496.548,160.633C495.69,152.949 497.833,147.574 504.381,152.68C510.136,158.487 514.404,165.957 517.966,172.522L518.071,172.556C521.037,178.097 523.6,183.35 525.819,188.358C527.567,192.962 528.68,198.238 528.642,206.707C528.44,217.033 525.594,224.203 521.823,224.756C516.59,225.253 515.205,227.46 517.562,239.067C518.761,244.466 519.455,249.884 520.123,256.381C520.559,260.527 520.008,262.147 518.459,262.165C514.025,262.385 509.362,255.638 506.091,250.83C502.717,245.421 500.734,241.953 499.277,234.853C496.69,221.045 496.627,206.809 499.924,198.892C502.953,191.686 503.622,186.973 500.519,176.492C499.679,173.813 498.909,171.033 498.144,168.194L498.103,168.165C497.492,165.737 496.935,163.181 496.546,160.631ZM428.328,207.12L428.293,207.18C429.781,212.729 429.467,217.572 427.651,220.376C426.329,222.76 424.131,223.074 421.163,221.554C419.16,220.138 417.204,218.675 415.297,217.162C413.507,215.499 411.56,213.463 409.468,211.078C408.591,210.02 407.707,208.944 406.921,207.861C400.962,199.722 396.268,193.945 391.665,188.872C383.715,180.238 381.058,164.908 373.273,152.961C368.705,145.053 361.298,136.893 355.958,127.501C354.705,125.275 353.771,123.021 353.225,120.932C351.784,112.919 355.651,112.567 367.436,122.138C372.646,126.459 377.096,131.417 380.515,136.167C383.523,140.324 385.833,144.366 387.618,148.25C391.733,157.319 393.79,163.809 397.599,168.1C398.832,169.499 400.125,170.937 401.49,172.041C407.064,176.824 413.578,182.533 420.939,192.616C422.875,195.383 424.598,198.236 425.979,201.093L426.002,201.049C426.839,202.981 427.611,205.009 428.328,207.12ZM408.691,245.892C409.594,247.758 410.8,249.324 412.639,250.705C416.247,253.175 416.789,256.856 416.377,259.724C416.284,264.063 415.056,267.25 413.12,269.349C411.95,270.617 410.533,270.965 408.426,270.079C406.161,268.71 403.783,267.491 401.169,266.587L401.172,266.51C397.124,264.885 395.013,265.346 393.579,269.013C392.81,271.263 392.157,273.99 390.581,275.878C387.593,279.834 381.668,274.956 378.588,268.411C374.575,260.324 370.971,257.282 372.426,249.12C372.994,246.269 375.53,243.889 378.548,242.791C380.458,242.079 382.222,241.634 383.899,241.476C387.681,241.126 389.623,240.109 389.132,235.848C388.593,232.416 388.303,229.327 388.688,226.395C389.017,223.195 390.927,221.12 395.461,223.221C399.787,225.164 403.651,230.42 405.562,235.747C406.749,239.62 407.287,243.072 408.691,245.892ZM649.033,233.952C646.567,238.865 643.691,242.369 640.688,243.767C635.301,246.198 631.725,247.58 628.597,253.774C625.139,260.203 621.474,271.139 615.9,279.499C610.741,286.108 607.947,283.876 608.614,277.285C609.43,273.043 610.911,267.181 612.493,261.3L612.586,261.177C612.621,261.077 612.651,260.978 612.686,260.878C617.638,245.902 620.542,237.149 622.117,229.213C622.895,225.093 623.888,221.015 625.073,216.809C626.723,210.947 628.922,206.485 632.267,201.559C636.275,195.32 640.909,188.041 646.309,185.902C648.277,185.407 651.31,185.002 652.992,186.566C654.259,187.743 655.678,190.858 656.872,193.984C657.61,197.659 657.614,202.688 656.724,209.458C656.374,212.34 655.335,216.96 653.783,221.909L653.722,221.999C652.308,226.058 650.733,230.036 649.033,233.952ZM586.512,179.298L586.367,179.31C590.017,182.678 593.215,191.04 593.654,202.316C593.959,207.938 593.614,212.989 593.082,217.409C592.156,225.092 591.311,230.71 591.709,236.151C592.071,240.457 593.33,243.764 596.603,243.62C602.722,242.379 607.357,240.731 606.766,252.053C606.663,260.676 601.801,269.812 597.946,276.522C593.749,283.495 590.559,288.042 585.911,293.539C585.067,293.955 584.219,294.385 583.363,294.814C577.344,294.697 574.555,285.03 575.657,271.222C576.757,253.794 577.051,243.439 571.085,240.024C563.902,239.441 565.26,221.273 568.657,205.397C570.781,194.356 574.083,187.726 577.963,181.798C578.32,181.074 578.7,180.459 579.095,179.932L579.055,179.935C580.325,178.522 581.788,177.403 583.161,177.548C584.104,177.648 585.275,178.325 586.512,179.298ZM601.184,331.478L601.162,331.561C602.357,331.864 603.855,331.73 605.749,331.027C608.993,329.811 612.299,326.949 615.512,322.699C616.626,321.219 617.807,319.74 618.814,318.19C630.979,299.372 650.07,287.918 658.542,294.105C663.76,298.165 664.614,306.195 660.797,317.88C658.645,324.547 652.322,332.499 645.497,337.561C638.917,342.446 633.7,343.209 632.165,339.708C631.711,338.687 631.412,337.512 630.957,336.486C629.021,332.233 622.07,334.32 614.962,341.097C612.041,343.878 609.206,346.841 606.341,349.576C603.457,352.328 600.79,354.055 598.315,354.535C593.585,355.415 591.644,357.49 589.722,363.254C589.557,363.744 589.375,364.245 589.3,364.457C587.884,374.178 572.374,387.785 564.442,385.535C561.456,384.708 559.804,382.479 559.331,379.32C559.306,376.994 559.765,373.652 560.603,369.513C561.726,366.08 563.487,362.32 565.841,358.44C569.88,351.811 573.908,344.896 578.786,338.177C583.551,331.622 588.472,326.48 593.998,324.235C595.328,323.689 596.222,323.725 596.732,324.516C596.912,324.795 597.044,325.17 597.13,325.646C597.151,325.758 597.175,325.863 597.198,325.972L597.202,325.99L597.203,325.985C597.888,328.025 598.854,330.476 599.711,331.094C600.072,331.354 600.595,331.463 601.184,331.478ZM527.394,404.078C521.922,408.181 517.9,408.541 519.094,403.823C519.188,403.663 519.297,403.492 519.422,403.308C521.343,400.473 522.672,397.577 523.521,394.646C524.86,390.03 523.489,385.169 518.203,385.694C512.781,386.159 511.692,381.937 514.396,374.755C516.633,368.77 520.146,363.631 524.98,360.024C530.553,355.859 535.911,350.78 540.734,343.564C543.616,339.226 546.674,337.898 549.661,337.632C550.254,337.797 550.85,337.955 551.448,338.11C557.1,344.315 557.599,354.376 552.681,367.168C550.543,372.725 547.843,378.074 544.613,383.137L544.951,382.854C542.742,385.968 540.003,390.121 538.192,392.66C535.682,396.179 533.014,399.157 530.487,401.487L527.394,404.078ZM501.65,425.632L501.616,425.66C501.784,425.622 501.947,425.58 502.119,425.545C506.07,424.726 509.929,424.189 513.77,423.756C519.628,423.081 525.109,420.207 529.744,414.082C532.653,410.242 536.274,407.412 540.465,406.346C544.591,405.289 547.28,406.931 547.354,410.486C547.419,414.01 545.494,418.192 542.854,423.22C539.956,429.11 534.979,435.603 526.837,440.991C515.656,448.428 503.093,450.02 497.39,445.432C493.88,442.673 492.681,438.643 493.019,433.887C493.056,433.41 493.134,432.956 493.237,432.518L493.191,432.554C494.084,430.732 495.208,428.936 496.47,428.027C497.567,427.238 499.494,426.407 501.65,425.632ZM468.808,448.675C468.564,448.796 468.319,448.917 468.074,449.036C470.291,448.474 472.562,448.347 474.691,448.706C479.886,449.604 483.45,453.073 481.925,457.439C478.29,467.714 470.383,476.577 456.99,482.196C454.856,483.085 452.487,483.436 450.174,483.785C443.032,484.082 437.218,482.01 432.094,479.134C427.046,475.786 425.938,471.271 426.704,466.371C426.878,465.82 427.06,465.271 427.238,464.72C428.721,462.603 430.363,460.602 433.536,459.761C434.685,459.717 435.84,459.662 436.995,459.598C439.467,460.073 441.654,460.988 443.94,461.768C449.267,463.549 452.857,462.377 456.19,458.028C457.456,456.381 458.658,454.686 460.337,453.164C461.003,452.562 461.716,452.02 462.458,451.529L462.166,451.645C463.631,450.668 465.263,449.7 466.532,449.272C467.137,449.068 467.921,448.867 468.808,448.675ZM413.74,456.055C413.472,456.431 413.211,456.81 412.958,457.192C411.564,459.303 410.978,461.612 412.711,463.863C413.126,464.444 413.539,465.023 413.961,465.598C414.382,466.993 414.481,468.395 414.345,469.811C413.929,470.716 413.518,471.618 413.115,472.522C407.823,479.395 399.944,483.036 390.708,484.532C386.607,485.208 383.963,482.975 385.254,479.603C386.761,475.714 385.786,472.353 383.56,468.565C380.757,463.756 382.287,459.325 385.15,455.299C385.747,454.463 386.461,453.701 387.128,452.906C388.99,451.223 390.882,449.549 392.861,447.95C395.805,445.761 398.714,443.768 401.578,442.021C401.728,441.94 401.879,441.86 402.031,441.78C407.774,438.797 413.023,439.151 418.085,442.675C419.981,443.982 420.717,445.562 419.723,447.688C419.399,448.293 419.079,448.896 418.761,449.499C418.52,449.814 418.273,450.126 418.029,450.439L418.218,450.475C416.593,452.07 415.115,453.96 413.74,456.055ZM354.071,407.656C353.28,408.732 352.358,409.749 351.353,410.73C344.772,417.159 338.354,423.731 332.215,430.507C330.442,432.465 328.507,434.246 326.352,435.734C322.589,438.327 318.701,439.786 314.668,436.927C310.599,434.047 309.542,429.446 310.227,424.404C310.856,419.793 313.371,416.115 316.35,412.804C320.227,408.484 324.685,404.82 329.066,401.119C330.427,399.973 330.401,399.184 329.294,398.033C327.571,396.24 325.812,394.526 323.569,393.383C319.91,391.517 316.381,391.701 313.222,394.812C310.266,397.726 306.988,398.828 303.153,397.843C302.678,397.444 302.117,397.208 301.475,397.16C294.292,392.813 296.941,384.2 303.021,380.475C305.99,378.666 309.154,377.397 312.396,376.33C315.706,375.241 318.997,374.164 322.188,372.846C326.046,371.739 329.906,370.718 333.744,369.684C336.222,369.016 338.322,369.567 340.111,371.336C340.563,371.78 341.11,372.139 341.611,372.537C343.822,374.873 345.922,377.297 347.851,379.85L347.849,379.825C350.478,384.326 355.456,393.229 356.166,397.27C356.506,399.209 355.102,401.399 355.271,403.652C355.365,404.91 354.783,406.4 354.071,407.656ZM349.54,352.396L349.547,352.362C346.581,348.204 345.771,342.518 348.272,337.021C348.914,335.612 349.655,334.272 350.699,333.118C352.681,330.906 354.9,329.736 357.268,329.63C359.082,329.755 360.833,330.215 362.525,330.954L362.49,331.021C363.412,331.534 364.344,332.181 365.286,332.98C368.505,335.731 371.366,338.89 375.098,340.859C378.488,342.65 379.422,342.578 381.284,339.543C382.358,337.775 383.396,336.006 384.829,334.558C388.028,331.3 391.67,331.617 394.947,335.667C401.146,343.298 400.743,355.117 393.837,361.7C387.659,367.609 380.065,367.774 373.175,362.434C370.069,360.037 366.747,358.355 362.841,358.589C359.476,358.758 356.448,357.938 353.95,356.436L353.942,356.48C352.402,355.206 350.849,353.767 349.54,352.396ZM364.39,318.316C364.203,319.704 363.923,320.959 363.505,321.638C363.034,322.405 362.043,322.999 360.974,323.444C361.005,323.394 361.036,323.343 361.067,323.292C359.602,323.995 357.774,324.132 355.801,323.612C353.59,323.035 351.52,321.961 349.416,320.94C344.997,318.795 340.881,318.036 337.119,320.95C334.799,322.728 330.895,322.169 328.075,320.345C325.264,318.512 323.442,315.209 324.734,312.712C326.796,308.774 326.976,304.368 327.773,300.161C328.636,295.386 331.71,294.112 337.478,297.225C344.228,300.919 350.818,304.13 357.34,307.198C358.958,308.509 360.55,309.837 362.117,311.174C363.63,313.52 364.638,315.908 364.383,318.326C364.385,318.323 364.388,318.32 364.39,318.316Z" style="fill:rgb(5,3,4);fill-rule:nonzero;"/>
        <path d="M475.694,307.036C475.409,304.625 475.56,302.231 475.44,299.672C475.295,296.525 474.737,293.068 472.996,289.736C470.471,285.066 467.653,284.055 465.476,287.275C461.305,292.744 457.512,301.881 456.751,311.535C456.118,319.772 460.556,319.974 465.044,318.273C466.014,317.914 466.941,317.612 467.804,317.581C470.103,317.611 470.605,318.999 470.666,322.98C470.685,324.242 470.692,325.553 470.762,326.897C471.013,331.786 471.702,337.322 473.747,342.534C477.398,351.96 483.167,351.901 486.517,345.912C488.528,342.896 490.273,339.769 492.048,335.771C493.149,332.885 494.265,329.698 494.825,326.368C496.78,315.463 498.332,302.173 498.973,288.078C499.168,284.099 498.908,280.67 498.146,277.307C496.809,271.319 493.429,266.859 490.751,272.658C489.285,275.722 488.44,279.927 487.925,284.666C487.159,291.796 486.799,297.476 486.041,302.29C485.375,306.541 484.262,309.986 482.434,312.102C479.307,315.485 476.282,312.448 475.694,307.036Z" style="fill:rgb(5,3,4);fill-rule:nonzero;"/>
        <path d="M296.744,554.689C294.386,546.228 292.845,538.113 291.063,530.195C289.754,524.311 287.575,521.022 284.076,519.842C280.363,518.605 277.286,519.662 275.278,523.98C273.754,527.277 273.116,531.497 272.925,535.422C271.862,561.378 292.887,594.298 309.052,605.271C315.474,609.875 320.553,610.646 323.173,606.265C326.533,600.546 321.644,588.367 313.733,580.997C311.764,579.182 309.819,577.485 307.903,575.754C304.49,572.668 301.805,568.531 299.767,563.764C298.465,560.714 297.583,557.688 296.744,554.689Z" style="fill:rgb(5,3,4);fill-rule:nonzero;"/>
        <path d="M453.823,280.568C456.554,279.835 456.335,273.244 456.199,267.581C456.048,261.677 456.484,257.069 457.518,253.857C458.862,249.836 460.64,249.318 463.51,252.098C464.924,253.407 466.374,255.109 468.778,257.064C470.001,258.017 472.038,259.496 474.337,259.912C479.394,260.912 483.141,256.383 483.079,248.15C482.968,238.395 479.405,231.992 476.994,224.447C474.793,218.047 473.089,208.974 467.957,198.592C461.183,185.995 457.439,191.598 460.271,203.32C460.724,205.796 461.17,208.228 461.592,210.564C463.285,221.009 461.289,224.52 458.535,225.637C456.573,226.371 454.247,226.389 451.58,227.592C448.738,228.83 445.709,231.864 443.475,236.713C437.734,251.484 441.083,261.096 445.826,271.662C447.975,276.355 450.866,281.335 453.823,280.568Z" style="fill:rgb(5,3,4);fill-rule:nonzero;"/>
        <path d="M519.633,331.628C523.58,331.667 527.357,326.702 530.407,320.869C532.521,316.955 534.624,314.969 537.135,314.516C543.698,313.532 552.137,304.997 556.402,288.637C556.479,288.229 556.656,287.482 556.755,286.792C559.254,266.249 555.895,258.002 551.557,241.148C551.115,239.576 550.446,238.375 549.786,237.122C544.755,226.826 540.937,233.243 540.108,248.395C539.101,259.35 538.177,266.41 537.34,273.086C536.936,276.356 536.485,279.342 535.848,282.123C534.291,288.728 531.849,290.767 527.84,292.056C526.607,292.482 525.344,292.918 524.024,293.724C522.585,294.597 521.06,295.868 519.435,298.113C515.565,303.5 512.872,312.499 512.584,318.796C512.18,326.308 514.682,330.984 519.633,331.628Z" style="fill:rgb(5,3,4);fill-rule:nonzero;"/>
        <path d="M124.359,272.732C115.869,279.154 111.834,285.828 113.089,291.523C114.367,297.56 121.561,300.004 133.458,299.428C144.765,298.905 154.938,295.41 164.298,290.362C173.126,285.577 181.74,281.25 189.856,277.192C200.861,271.735 202.428,266.445 193.763,261.884C190.439,260.186 185.868,260.197 180.907,262.104C178.131,263.167 175.849,264.495 173.499,265.826C170.794,267.359 167.811,268.802 163.949,269.727C160.539,270.541 158.187,270.545 157.338,268.891C155.324,265.01 157.022,260.728 160.863,256.337C163.837,252.922 167.085,249.607 167.712,246.522C167.78,245.984 167.815,245.776 167.829,245.567C168.132,241.512 163.563,238.451 156.716,238.394C149.796,238.345 143.988,240.819 139.59,245.666C135.543,250.107 133.518,254.585 133.792,258.813C134.067,263.331 131.035,267.674 124.359,272.732Z" style="fill:rgb(5,3,4);fill-rule:nonzero;"/>
        <path d="M350.441,472.28C349.092,473.446 347.607,474.455 346.161,475.478C342.96,477.733 340.657,480.736 340.027,485.014C339.562,488.194 340.295,491.293 343.135,493.778C345.904,496.19 348.667,496.253 351.359,495.294C354.591,494.142 356.774,491.768 358.911,489.26C359.059,489.055 359.211,488.85 359.36,488.647C359.581,488.175 359.77,487.678 360.032,487.234C364.195,480.263 367.027,472.686 368.532,464.232C369.52,458.677 369.854,453.101 367.872,447.354C365.155,439.429 358.102,434.399 350.49,435.72C342.491,437.125 338.195,442.855 335.942,450.342C335.127,453.054 334.816,455.922 335.382,458.848C335.674,460.369 336.074,462.04 337.731,462.71C339.369,463.37 340.485,462.379 341.559,461.443C343.411,459.824 344.781,457.748 346.138,455.649C347.814,453.076 349.026,453.121 351.087,455.762C355.351,461.222 355.093,468.253 350.441,472.28Z" style="fill:rgb(5,3,4);fill-rule:nonzero;"/>
        <path d="M457.376,384.308C453.995,386.08 451.502,388.974 449.281,392.147C445.571,397.439 441.036,400.517 435.063,400.752C430.288,400.931 425.565,402.388 421.283,405.465C415.85,409.356 413.683,415.462 416.349,420.472C417.35,422.34 418.827,423.861 420.381,425.306C421.983,426.588 423.582,427.87 425.256,429.059C432.232,434.05 442.817,432.343 449.88,425.327C453.934,421.32 455.406,416.881 455.54,412.112C455.671,407.324 456.922,402.633 459.933,397.756C461.871,394.615 462.773,391.129 462.922,387.665C463.098,383.338 461.202,382.273 457.376,384.308Z" style="fill:rgb(5,3,4);fill-rule:nonzero;"/>
        <path d="M123.439,506.296C118.03,503.504 111.351,508.621 105.092,520.646C103.315,524.082 101.78,527.606 100.444,531.203C92.711,551.981 89.418,572.651 87.189,594.681C86.38,602.69 85.59,610.935 85.102,619.298C84.811,624.247 85.075,628.953 86.121,633.125C89.202,645.27 97.038,644.235 102.199,629.985C106.526,618.272 108.156,606.312 107.143,595.745C105.837,582.301 108.346,569.51 113.679,556.21C115.694,551.198 117.474,546.091 119.363,541.128C121.462,535.62 123.403,530.162 124.931,524.736C127.844,514.394 127.516,508.462 123.439,506.296Z" style="fill:rgb(5,3,4);fill-rule:nonzero;"/>
        <path d="M321.279,651.196C318.013,650.953 317.427,650.568 313.568,644.683C308.392,636.759 304.525,629.063 303.572,621.896C303.421,620.761 302.953,619.367 302.596,618.086C301.25,613.249 298.931,609.506 295.831,606.435C292.497,603.137 289.56,602.617 288.17,605.776C285.76,611.339 285.729,619.974 289.107,631.51C297.951,664.815 333.281,706.146 355.457,709.197C357.525,709.673 359.675,709.608 361.493,709.013C370.617,705.726 363.168,686.394 348.724,670.42C337.732,658.18 328.837,651.837 321.279,651.196Z" style="fill:rgb(5,3,4);fill-rule:nonzero;"/>
        <path d="M237.231,37.74C243.501,50.466 249.257,62.229 257.346,73.817C265.398,84.854 272.411,89.844 279.437,90.114C280.604,90.147 281.669,90.035 282.62,89.809C285.495,89.115 289.703,91.232 294.667,95.188C298.397,98.159 301.876,101.535 305.219,104.968C308.316,108.149 311.354,111.287 314.523,114.181C322.738,121.675 328.651,124.067 330.299,119.602C332.098,114.485 330.804,106.63 325.716,96.04C319.495,83.04 308.724,73.255 299.971,72.646C294.907,72.206 288.343,67.884 280.966,60.192C277.383,56.457 274.106,52.529 270.791,48.517C266.6,43.448 262.377,38.229 257.278,33.275C243.629,19.98 231.131,17.238 232.991,27.081C233.544,30.218 235.387,33.996 237.231,37.74Z" style="fill:rgb(5,3,4);fill-rule:nonzero;"/>
        <path d="M630.563,655.582C627.203,649.971 622.611,644.611 616.447,639.685C612.398,636.439 607.344,633.692 600.363,631.876C593.896,630.187 589.715,630.521 585.935,633.068C581.854,635.829 581.101,639.115 581.977,642.671C582.696,645.584 584.382,648.572 584.869,651.502C585.71,656.484 580.373,658.202 570.806,656.064C566.416,655.086 562.082,654.015 557.836,652.849C551.135,651.01 545.331,650.832 540.229,651.716C532.316,653.091 528.581,656.154 529.222,661.375C529.736,662.534 530.268,663.698 530.808,664.871C532.914,667.572 535.789,670.164 539.668,672.597C545.836,676.463 552.731,678.788 560.016,680.43C560.874,680.527 561.733,680.623 562.595,680.719C568.429,681.181 573.74,680.938 577.573,679.015C581.49,677.056 587.029,676.544 593.419,676.602C599.199,676.654 605.178,676.814 610.766,676.033C626.895,673.795 636.021,664.771 630.563,655.582Z" style="fill:rgb(5,3,4);fill-rule:nonzero;"/>
        <path id="Curves2" serif:id="Curves" d="M185.475,70.823C183.408,75.007 179.306,74.706 175.054,70.245C172.964,68.044 170.897,65.886 168.864,63.757C168.616,63.614 168.37,63.469 168.119,63.33C165.677,61.677 163.321,61.643 161.031,62.37C155.906,63.964 151.933,62 149.272,55.943C148.807,54.886 148.321,53.86 147.824,52.85C147.038,50.609 145.758,48.35 144.1,46.077C140.082,39.481 135.51,33.851 131.02,28.545C126.892,23.657 123.35,17.659 120.61,9.825C119.559,6.821 118.602,3.545 118.905,-0.103L147.326,-0.103C151.021,2.882 154.166,7.748 157.26,12.739C160.031,17.203 162.674,21.898 165.793,26.045C166.995,27.983 168.182,29.949 169.853,31.104C171.95,33.801 174.473,35.272 176.929,37.15C181.723,40.82 184.876,46.166 185.981,52.633C186.655,56.569 187.077,60.393 186.902,63.965L186.994,64.035C186.606,66.499 186.097,68.79 185.475,70.823ZM204.868,84.116C205.219,83.951 205.587,83.798 205.974,83.66C209.118,82.528 212.663,81.809 215.824,80.787C217.325,80.3 218.778,79.762 219.964,79.011C225.009,75.767 223.597,70.896 214.17,60.237C207.933,53.207 201.067,46.009 195.679,38.58C190.031,30.798 187.819,24.83 187.223,18.963C186.713,14.259 190.479,15.039 195.684,17.199C202.518,20.018 208.892,26.163 214.412,32.518C215.916,34.246 217.262,35.969 218.655,37.674C229.997,52.727 241.174,66.995 248.897,79.798C254.399,88.929 254.096,94.623 253.086,99.752C252.813,101.119 251.268,101.439 249.314,101.273C244.395,100.854 240.743,101.822 237.313,103.098C234.114,104.295 230.844,105.504 226.019,105.245C224.068,105.14 222.039,104.905 219.892,104.423C216.218,103.288 211.91,101.455 207.141,98.878C203.134,96.277 201.241,93.983 200.881,91.332C200.727,90.228 200.774,89.253 200.992,88.391C201.936,86.698 203.281,85.314 204.868,84.116ZM271.582,133.57C274.054,129.955 278.804,128.316 286.347,129.222C291.853,129.876 297.923,133.129 304.363,138.38C307.927,141.286 311.25,144.395 314.369,147.559C319.292,152.555 324.256,156.42 329.462,159.544C333.207,161.79 336.897,164.098 340.522,166.546C355.333,176.522 364.877,189.117 368.792,204.287C370.562,213.52 369.463,222.316 365.143,228.316C362.814,231.531 358.337,230.711 353.444,227.314C349.811,224.79 347.657,221.873 347.583,218.889C347.534,217.001 347.851,215.289 348.027,213.503C348.242,211.289 347.082,208.766 344.27,206.148C343.499,205.434 342.822,204.742 342.228,204.068L342.199,204.142C340.26,201.701 339.062,199.657 338.761,198.094C338.791,197.958 338.819,197.821 338.847,197.685C338.798,197.374 338.765,197.064 338.749,196.755L338.742,196.579C338.731,196.247 338.739,195.915 338.767,195.585C338.89,194.03 338.858,192.361 338.667,190.603C338.338,187.658 336.795,185.402 332.995,182.561C327.202,178.233 321.955,176.278 317.526,176.648C316.542,176.728 315.643,176.959 314.893,177.306C311.436,178.891 306.449,178.08 299.933,175.17C286.515,169.221 280.773,171.545 277.535,177.863C276.156,180.489 275.448,183.476 274.112,186.145C272.821,188.729 270.804,190.887 266.873,191.987C261.398,193.506 253.931,192.67 247.657,189.809C241.25,186.878 236.583,181.743 236.303,177.182C236.004,172.431 239.914,169.687 244.917,167.7C248.813,166.144 253.323,165.234 257.555,164.247C260.69,163.514 263.581,162.658 266.021,161.476C270.081,159.508 271.898,156.339 271.023,151.5C270.374,147.929 269.351,144.146 269.487,140.833C269.491,140.737 269.503,140.648 269.508,140.554L269.344,140.511C269.799,137.846 270.536,135.521 271.582,133.57ZM334.929,215.677L334.925,215.681C337.594,217.601 339.799,219.937 341.563,222.557C344.477,226.885 345.991,230.994 346.479,234.754C347.464,242.907 339.016,244.781 328.675,240C327.479,239.453 326.275,238.936 325.058,238.411C323.706,237.754 322.339,237.099 321.016,237.101C318.771,236.652 317.508,237.374 316.223,238.069C312.456,240.081 307.885,239.991 302.43,237.807C300.061,236.67 297.708,235.467 295.534,234.229L295.569,234.217C286.593,228.503 274.415,217.722 276.548,209.298C278.028,203.63 286.856,202.301 296.766,209.222C298.927,210.732 301.123,212.209 303.322,213.637C309.173,217.436 314.116,218.842 318.608,217.928C321.902,217.251 323.901,215.543 325.073,213.233C325.898,211.583 327.784,211.867 330.406,213.055C330.439,213.07 330.469,213.088 330.502,213.104L330.525,213.079C331.993,213.902 333.461,214.775 334.929,215.677ZM233.734,248.628L233.382,248.624C231.22,249.38 228.713,249.939 225.863,250.255C221.844,250.704 219.688,250.111 218.667,248.138C218.646,248.1 218.637,248.061 218.619,248.022L218.208,247.991C218.222,246.062 218.327,244.447 218.133,242.918L218.244,242.927C218.003,240.773 217.152,238.653 215.605,236.567C213.79,234.141 210.858,233.358 205.469,234.044C203.042,234.354 200.717,234.883 198.253,235.256C192.556,236.116 188.215,235.321 185.836,232.785C183.412,230.213 183.811,227.47 184.983,224.736C187.51,218.811 192.628,213.484 200.953,209.434C203.316,208.285 205.944,207.333 209.083,206.774C213.279,206.025 217.43,206.477 221.467,208.095C225.834,209.845 229.427,211.888 231.624,214.362C233.637,216.637 236.499,218.54 240.625,219.963C249.136,222.943 251.772,226.858 251.204,231.914C249.551,235.773 246.933,239.815 242.243,243.525L242.69,243.511C240.535,244.838 236.884,247.027 233.734,248.628ZM136.7,222.611L136.591,222.535C136.538,223.785 135.979,225.25 134.996,226.976C133.292,229.924 130.532,232.708 125.459,235.3C114.641,240.817 99.215,241.926 93.056,236.642C90.251,234.212 88.703,231.426 88.798,228.271C88.92,224.01 86.241,220.457 79.354,218.123C64.85,213.348 63.322,205.952 73.221,197.011C74.678,195.692 75.586,194.303 76.742,192.959C79.782,189.415 83.899,187.57 89.081,187.416C95.921,187.213 103.104,189.301 105.277,191.874C106.354,193.153 106.561,194.508 106.854,196.388C106.697,197.403 106.509,198.94 106.172,200.479C105.64,202.919 105.308,205.347 105.75,207.725C106.576,212.274 111.557,214.922 121.345,215.854C124.39,216.164 126.919,216.528 128.993,216.97L128.88,216.88C131.644,217.389 134.866,217.876 135.567,218.713C136.186,219.452 136.519,220.951 136.7,222.611ZM89.283,143.837C88.977,142.276 88.676,140.702 88.378,139.115L88.351,138.932C88.156,137.19 87.949,135.427 87.74,133.645L87.379,130.551C86.784,129.904 86.15,129.256 85.475,128.606C82.085,125.36 79.75,121.686 82.24,118.59C83.312,117.255 84.572,115.991 85.911,114.766L85.901,114.599C88.34,112.49 90.994,110.391 93.331,108.719C94.635,108.259 96.523,108.191 98.253,108.157C102.493,108.073 106.718,108.091 111.13,108.102C119.125,108.631 127.301,109.841 133.349,114.97C139.293,120.015 137.397,123.767 133.41,126.974C131.439,128.562 129.042,130.022 126.376,131.361C121.917,133.602 121.509,136.649 123.817,140.247C124.991,142.082 126.153,143.919 126.906,145.738C128.506,149.632 125.647,151.859 118.193,152.707C113.226,153.273 107.893,153.184 102.452,152.711C99.65,152.468 97.497,151.815 95.858,150.849L95.891,150.997C93.364,149.538 91.167,146.862 89.283,143.837ZM85.838,91.496C80.379,88.278 76.522,84.455 73.063,80.454C71.637,78.806 70.458,77.11 69.158,75.426L68.591,74.325C65.295,67.42 66.932,62.506 75.1,60.408C80.689,58.983 81.98,55.119 82.557,50.989C83.15,46.765 82.499,41.976 84.792,38.658C92.231,26.881 104.231,29.823 126.876,47.412L126.995,47.397C130.325,50.358 133.125,52.931 135.352,55.08C138.91,58.886 141.575,62.703 143.439,66.384C147.223,73.84 147.819,80.084 146.792,85.741C146.403,87.925 145.154,89.795 140.449,88.898C135.983,88.051 133.004,85.434 130.281,82.834C125.893,78.652 122.486,74.367 119.37,69.988C116.257,65.644 112.226,63.543 106.864,63.601C105.187,63.621 103.754,63.957 102.562,64.52C101.141,66.321 99.855,68.283 98.671,70.473C98.603,72.489 99.254,74.785 100.756,77.153C102.916,80.5 105.396,83.821 107.355,87.095C108.858,89.615 110.173,92.17 108.503,94.072C105.81,97.128 98.514,97.188 91.399,94.284L91.392,94.342C89.722,93.65 88.11,92.9 86.64,92.008L86.647,91.962C86.373,91.808 86.104,91.653 85.838,91.496Z" style="fill:rgb(5,3,4);fill-rule:nonzero;"/>
        <path id="Curves3" serif:id="Curves" d="M52.75,376.36L53.075,376.46C57.258,373.731 61.827,371.475 66.799,369.794C72.196,367.97 77.577,365.941 83.071,363.014C90.288,359.17 96.264,354.978 101.243,350.382C104.261,347.592 107.044,344.807 111.011,342.287C118.722,337.383 128.547,335.086 134.3,336.439C140.371,337.865 140.264,342.165 138.946,347.099C138.459,348.886 137.606,350.812 137.071,352.249C136.66,353.099 136.265,353.927 135.864,354.763L136.259,354.706L133.719,360.136L133.264,360.211C131.758,363.382 130.27,366.522 128.718,369.716C126.86,373.546 124.268,377.55 119.04,382.037C111.275,388.722 104.087,391.566 100.679,388.693C99.709,387.872 99.035,386.812 98.043,385.991C94.909,383.392 87.505,385.663 78.741,392.479C72.467,397.372 68.461,402.393 65.347,407.353C56.706,421.119 53.551,432.829 53.871,442.58C54.042,447.872 54.044,453.281 50.814,460.928C48.156,467.223 43.463,473.991 36.519,481.305C26.775,491.599 16.918,496.768 13.039,493.05C9.807,489.917 11.225,483.182 13.406,476.031C14.235,473.292 14.975,470.618 15.698,467.971C17.572,461.08 16.086,456.994 10.851,455.646C8.512,455.05 6.38,454.198 4.755,452.848C1.501,450.177 2.261,444.977 8.375,436.942C10.948,433.561 13.659,430.185 16.423,426.853C21.148,421.154 23.981,416.353 25.459,411.936C27.863,404.721 32.116,396.818 39.619,388.235C42.221,385.251 45.065,382.502 48.152,380.026L48.035,379.979C49.022,379.133 49.954,378.373 50.82,377.717C51.508,377.195 52.154,376.739 52.75,376.36ZM26.816,363.387C25.22,363.203 23.615,363.022 22.011,362.823C16.976,362.219 14.304,358.478 16.803,350.711C17.305,349.155 17.914,347.638 18.62,346.155C18.62,346.155 20.593,342.436 21.777,340.7C23.041,338.848 26.202,335.043 26.202,335.043C28.544,332.447 31.197,329.984 34.104,327.646C37.117,325.225 40.217,323.239 43.259,321.761C56.614,315.291 67.58,313.344 75.623,315.893C82.298,318.061 81.02,326.061 73.225,337.602C70.599,341.481 67.632,345.258 65.344,347.857C61.1,352.768 58.034,356.963 54.457,360.731C50.268,365.15 46.375,367.758 43.597,366.701C41.395,365.871 39.037,365.27 36.585,364.794L36.23,364.634C36.23,364.634 33.183,363.42 31.618,363.198C30.054,362.976 26.842,363.304 26.842,363.304L26.816,363.387ZM157.968,352.918L158.445,352.907C161.332,351.179 164.494,349.962 167.288,349.814C174.654,349.35 181.927,347.935 189.685,346.039C196.011,344.499 200.533,346.835 200.748,350.7C200.839,352.244 200.233,353.983 199.082,355.788L199.538,355.86C198.621,357.447 197.193,359.037 195.771,360.338L195.232,360.259C193.928,361.467 192.433,362.657 190.774,363.792C185.389,367.468 179.95,369.9 174.373,371.206C172.394,371.674 171.21,372.475 169.797,374.025C165.932,378.272 161.867,382.62 156.908,386.855C150.425,392.392 143.941,396.689 136.951,398.561C134.321,399.27 132.958,398.959 134.543,396.47C136.351,392.281 139.213,388.334 141.994,384.497C143.975,381.761 145.915,379.071 147.727,376.445C150.315,372.698 151.104,369.721 150.215,367.379C149.82,366.346 149.507,365.253 149.354,364.086C149.101,362.4 150.179,360.266 152.017,358.163L151.438,358.197C151.856,357.684 152.225,357.257 152.488,357C153.568,355.948 155.941,354.278 157.968,352.918ZM215.233,358.817L215.624,358.903C220.403,353.927 226.152,349.585 232.092,345.738C233.558,344.786 235.225,344.004 236.844,343.265C241.744,341.029 246.621,340.138 251.113,340.885C254.172,341.396 256.965,340.771 259.716,339.12C261.596,337.992 263.365,336.791 265.238,335.713C269.891,333.04 272.735,333.19 275.738,336.224C276.01,336.503 276.327,336.757 276.619,337.026L276.655,336.989C276.444,337.422 276.771,337.686 277.069,337.963L277.063,337.929C277.22,338.321 277.027,338.889 277.875,338.93L277.802,338.937C277.311,339.193 277.56,339.495 277.592,339.775C278.314,347.676 268.662,354.575 258.596,354.528C255.667,354.517 252.785,354.302 249.788,354.407C244.715,354.595 240.664,356.899 237.879,360.976C237.174,362.004 236.501,363.047 235.82,364.095L236.229,364.215C235.47,365.567 234.466,367.101 233.246,368.553L232.839,368.436C228.251,374.369 220.454,378.238 214.417,377.536C208.116,376.803 206.058,371.206 210.865,364.537C211.19,364.089 211.551,363.66 211.894,363.221L211.358,363.109C212.645,361.414 213.976,360.01 215.233,358.817ZM272.989,369.341L273.283,369.199C273.708,368.372 274.322,367.564 275.127,366.819C276.57,365.492 278.246,364.486 279.957,363.543C280.086,363.366 280.212,363.187 280.336,363.005C284.452,361.907 287.543,359.784 289.973,357L289.977,356.95C292.426,354.445 293.275,351.656 292.279,348.57C291.666,346.689 290.794,344.881 289.827,343.135L289.823,343.128L289.582,342.292C289.582,342.292 287.04,339.623 286.609,337.912C286.287,336.631 286.236,333.854 286.248,331.784C286.301,331.435 286.355,331.085 286.415,330.738C287.16,326.423 290.679,323.491 296.259,322.884C300.524,323.271 303.188,325.403 305.259,328.048C305.813,328.758 306.373,329.461 306.918,330.176C307.035,330.41 307.131,330.651 307.263,330.88C309.627,335 314.048,337.541 317.89,340.568C320.892,342.934 322.511,345.762 322.023,349.3C321.392,351.812 320.058,354.045 318.37,356.142C316.114,358.201 313.824,360.251 310.877,361.609C308.963,362.279 307.075,363.08 305.033,363.341C301.178,363.836 298.239,365.713 295.843,368.538C293.64,371.14 291.111,373.502 288.044,375.387C283.214,378.348 277.918,378.627 274.634,376.068C274.078,375.634 273.636,375.135 273.305,374.593L273.085,374.671C272.303,373.076 272.298,371.155 272.989,369.341ZM258.952,308.966C258.746,308.862 258.54,308.76 258.332,308.658C258.683,310.566 257.972,312.668 256.008,314.667C253.808,316.962 250.824,318.45 246.599,318.556C242.006,318.682 237.984,320.196 234.214,322.46C231.636,324.009 229.114,325.656 226.125,327.035C221.294,329.271 217.43,329.801 213.592,328.618C213.224,328.505 212.891,328.362 212.537,328.235C205.713,325.939 205.377,324.78 211.938,318.806C214.014,316.925 215.482,315.059 216.527,313.164C218.757,309.089 224.085,306.139 229.897,303.687C229.92,303.678 230.084,303.733 230.077,303.769C230.065,303.886 230.005,304.007 229.965,304.128C229.729,304.214 229.291,304.343 229.295,304.379C229.355,304.642 229.717,304.605 230.125,304.483C232.579,303.854 235.009,303.245 237.438,302.777C236.976,302.72 236.511,302.667 236.042,302.617C238.823,302.144 246.548,300.989 249.885,302.114C251.789,302.757 257.038,304.404 258.952,308.966ZM213.688,302.534L213.317,302.565C210.889,304.702 208.588,306.908 206.216,309.148C204.154,311.088 201.695,311.892 198.404,311.816C192.636,311.689 188.359,310.707 187.614,307.385C187.529,307.018 187.507,306.651 187.532,306.284L186.144,306.523C187.693,304.453 189.772,302.311 192.051,300.432L192.089,300.426C193.148,299.688 194.358,298.967 195.682,298.265C196.925,297.605 198.124,296.92 199.439,296.341C207.667,292.729 212.251,288.761 214.948,284.251C216.461,281.72 218.092,279.175 221.18,276.922C224.971,274.151 229.592,271.91 236.166,272.581C242.613,273.264 245.273,275.88 246.003,278.975C246.578,281.457 245.615,283.91 243.904,287.142C242.987,288.936 241.049,291.376 237.49,293.536C235.236,294.905 232.7,296.013 229.765,296.701C227.719,296.767 220.974,297.068 218.397,298.203C216.815,298.9 214.979,300.92 213.688,302.534ZM267.24,307.865L267.633,308.136C267.854,307.653 268.158,307.172 268.55,306.691C269.292,305.784 270.067,304.891 270.923,304.034C272.797,302.156 273.702,300.185 273.211,297.976C272.924,296.699 272.776,295.411 272.952,294.112C273.349,291.147 275.552,288.858 279.728,287.55C283.809,286.276 288.089,285.376 292.917,286.386C297.992,287.452 301.242,290.315 301.467,293.675L301.478,293.858C301.896,305.347 293.505,310.948 277.241,313.64C276.813,313.714 276.412,313.858 275.994,313.972C275.491,313.965 274.999,313.942 274.513,313.911L274.883,314.289C273.77,314.19 268.398,313.658 267.482,312.526C266.931,311.844 267.031,309.699 267.24,307.865ZM76.412,293.099C76.387,293.097 76.362,293.095 76.337,293.093C75.768,293.751 75.186,294.413 74.583,295.08C69.301,300.91 63.757,305.026 57.881,306.943C51.726,308.961 47.318,308.684 48.179,303.613C48.309,302.855 48.392,302.145 48.427,301.483L48.592,301.177C48.592,301.177 48.832,297.772 48.164,296.713C47.496,295.654 44.583,294.821 44.583,294.821L44.517,294.857C41.866,294.142 37.843,294.662 32.34,296.373C23.288,299.228 20.503,295.701 24.423,288.683C28.111,282.024 37.298,274.304 48.668,268.933C53.623,266.644 59.196,265.341 63.337,265.577C69.845,265.941 77.336,264.581 85.553,262.221C94.046,259.82 95.069,261.386 91.753,268.878C89.003,275.071 85.433,281.56 80.106,288.477C80.292,288.503 80.478,288.529 80.663,288.556C79.307,290.494 77.864,292.11 76.412,293.099Z" style="fill:rgb(5,3,4);fill-rule:nonzero;"/>
        <path d="M174.765,138.63C184.595,141.956 188.868,146.315 186.618,150.876C185.603,152.912 183.892,154.734 182.719,156.75C179.406,162.452 185.086,170.431 195.897,175.449C203.55,179.038 209.669,179.438 213.306,176.235C220.622,169.71 224.972,162.479 225.52,153.668C225.744,150.031 224.34,145.934 220.079,141.316C216.809,137.785 212.76,135.542 208.376,134.874C202.409,133.964 200.116,132.968 195.874,128.966C193.099,126.36 190.692,123.664 187.74,121.029C179.858,114.006 169.203,111.272 162.854,114.751C159.944,116.314 159.036,118.799 157.767,121.156C157.713,121.477 157.659,121.8 157.603,122.122C157.651,122.687 157.712,123.255 157.72,123.81C157.73,130.895 161.702,134.291 174.765,138.63Z" style="fill:rgb(5,3,4);fill-rule:nonzero;"/>
        <path d="M402.963,380.897C401.947,380.719 400.883,380.678 399.839,380.735C394.782,381.004 390.286,383.104 385.898,385.629C380.201,388.905 376.21,393.473 374.919,400.139C374.84,400.889 375.236,401.728 374.473,402.343C374.752,402.6 374.785,402.875 374.534,403.173C374.535,403.173 374.595,403.119 374.595,403.118C374.789,404.991 374.988,406.865 375.189,408.733C375.468,409.442 375.77,410.141 375.653,410.935C375.764,412.073 376.815,412.912 376.668,414.13C377.076,414.594 377.302,415.135 377.374,415.742C377.893,416.606 378.416,417.466 378.94,418.324C379.285,418.734 379.631,419.143 379.979,419.551C379.979,419.551 380.024,419.591 380.025,419.592C380.396,419.596 380.667,419.748 380.832,420.077C383.909,422.132 387.353,422.31 390.92,421.738C391.514,421.553 392.109,421.366 392.703,421.18C397.462,419.016 401.431,415.826 404.476,411.571C405.99,409.455 406.209,407.297 404.532,405.28C403.843,404.451 403.437,403.48 403.323,402.404C403.045,399.77 404.134,397.439 405.468,395.199C406.566,393.355 407.645,391.506 408.167,389.405C409.31,384.783 407.372,381.664 402.963,380.897Z" style="fill:rgb(5,3,4);fill-rule:nonzero;"/>
        <path d="M330.217,288.154C333.014,288.982 334.586,287.981 335.848,286.597C336.263,286.141 336.713,285.711 337.077,285.224C339.233,282.291 342.868,281.975 347.39,283.502C349.961,284.372 352.299,285.818 354.439,287.561C355.638,288.313 356.843,289.055 357.719,290.191C360.068,291.82 362.074,293.891 364.494,295.327C366.923,296.77 368.937,296.885 370.65,295.594C374.04,293.074 373.59,286.574 369.143,282.527C365.546,279.244 363.779,276.2 363.371,272.218C363.061,269.25 361.563,266.059 358.949,263.132C354.301,257.942 348.527,256.789 345.68,260.099C344.83,261.069 344.06,262.108 343.223,263.099C342.914,263.522 342.652,263.986 341.976,264.088C340.141,265.517 337.254,265.164 334.282,264.615C329.512,263.736 326.766,265.11 325.432,267.982C323.779,271.511 323.146,275.394 323.007,279.467C322.968,280.655 323.235,281.914 323.952,283.161C325.252,285.435 327.177,287.258 330.217,288.154Z" style="fill:rgb(5,3,4);fill-rule:nonzero;"/>
        <path d="M419.583,328.061C421.236,328.287 422.886,328.503 424.516,328.51C429.321,328.534 432.789,325.383 434.137,319.452C436.534,308.754 433.919,297.751 427.98,287.567C426.88,285.68 425.44,284.286 423.913,283.499C419.098,281.033 416.721,282.554 417.028,288.801C417.057,289.478 417.005,290.139 417.083,290.818C417.783,297.143 415.813,301.07 411.993,303.399C408.077,305.779 404.869,309.273 402.28,313.691C399.58,318.254 400.195,322.096 404.631,326.485C406.074,327.464 407.454,330.094 409.644,328.995C412.855,327.36 416.184,327.595 419.583,328.061Z" style="fill:rgb(5,3,4);fill-rule:nonzero;"/>
        <path d="M424.119,356.493C423.847,356.844 423.577,357.192 423.301,357.541C419.842,361.913 418.507,367.067 418.115,372.526C417.834,376.248 420.095,377.623 423.237,375.91C425.184,374.84 427.172,373.874 429.125,372.826C430.661,372.001 432.142,371.978 433.615,372.603C435.235,373.289 436.409,374.548 437.507,375.943C440.507,379.76 444.416,379.732 447.879,375.091C453.605,367.379 456.044,358.019 454.495,348.421C452.774,338.266 445.956,335.737 439.189,341.375C433.781,345.777 428.863,350.926 424.119,356.493Z" style="fill:rgb(5,3,4);fill-rule:nonzero;"/>
        <path d="M256.905,274.032C256.685,276.528 257.91,278.76 261.73,280.317C265.596,281.902 269.598,281.585 273.116,280.543C280.936,278.217 287.934,275.691 293.627,272.376C296.958,270.44 297.553,267.663 295.254,264.294C291.092,258.209 283.119,254.068 274.786,251.85C264.946,249.503 257.359,249.775 251.479,251.906C242.726,255.132 243.002,260.476 251.491,264.31C252.373,264.719 253.292,265.105 254.229,265.472C257.739,266.856 258.781,268.646 257.936,270.744C257.499,271.827 256.999,272.924 256.905,274.032Z" style="fill:rgb(5,3,4);fill-rule:nonzero;"/>
        <path d="M438.96,687.078C434.67,680.64 430.598,674.423 425.684,668.202C418.615,659.24 411.059,651.71 401.578,646.695C391.772,641.507 385.167,640.885 380.983,643.984C378.501,645.854 377.031,648.897 381.279,655.955C385.544,663 391.707,667.447 397.752,671.086C401.151,673.136 404.466,674.75 407.903,676.616C413.692,679.766 418.835,684.222 423.549,690.498C425.57,693.191 427.74,695.944 430.097,698.674C436.561,706.174 443.563,709.786 446.5,707.329C448.003,706.115 448.058,703.868 446.881,700.75C445.245,696.421 442.033,691.706 438.96,687.078Z" style="fill:rgb(5,3,4);fill-rule:nonzero;"/>
        <path d="M129.724,416.258C123.309,417.205 113.629,423.988 107.125,432.51C101.072,440.418 100.068,446.079 104.427,448.706C108.435,451.235 108.097,456.841 105.077,464.266C103.388,469.379 102.029,473.65 102.083,477.11C102.266,485.126 108.931,483.355 116.602,473.465C117.434,472.398 118.236,471.283 119.009,470.176C124.962,461.636 127.876,454.078 129.653,446.934C130.922,441.836 132.238,436.858 134.954,431.392C139.835,421.609 138.051,415.029 129.724,416.258Z" style="fill:rgb(5,3,4);fill-rule:nonzero;"/>
        <path d="M490.358,384.142C490.146,384.277 489.94,384.421 489.733,384.571C482.68,389.735 477.04,395.7 473.1,403.3C467.739,413.491 469.62,423.679 478.458,425.724C483.123,426.797 489.104,424.571 492.552,420.56C496.604,415.862 497.321,411.019 494.584,407.952C492.552,405.634 492.785,402.636 495.333,398.66C495.815,397.898 496.269,397.121 496.731,396.344C496.735,396.344 496.74,396.347 496.745,396.348C497.302,395.414 497.868,394.478 498.402,393.526C500.731,389.365 501.13,384.72 499.473,382.922C497.75,381.054 494.272,381.607 490.358,384.142Z" style="fill:rgb(5,3,4);fill-rule:nonzero;"/>
        <path d="M321.633,525.678C327.16,526.03 331.166,520.185 329.334,513.818C326.857,505.304 325.681,496.939 324.018,488.656C323.545,486.31 323.039,483.972 321.937,481.795C320.797,479.546 319.38,478.855 317.537,479.692C316.185,480.311 315.18,481.469 314.221,482.674C311.706,485.833 310.019,489.79 308.39,493.758C306.806,497.228 305.375,500.821 304.114,504.572C303.578,506.175 303.584,507.964 304.302,509.939C307.136,517.842 315.657,525.255 321.633,525.678Z" style="fill:rgb(5,3,4);fill-rule:nonzero;"/>
        <path d="M15.102,47.911C22.694,48.851 30.323,49.388 36.689,51.789C39.466,52.845 43.359,50.238 47.548,45.819C51.125,42.051 54.191,37.855 58.435,32.944C60.723,30.346 63.69,26.569 66.316,22.689C74.111,11.149 75.39,3.148 68.714,0.98C60.671,-1.568 49.705,0.379 36.35,6.849C33.308,8.326 30.208,10.313 27.195,12.734C18.956,19.359 12.736,26.981 9.895,35.799C7.395,43.566 10.067,47.307 15.102,47.911Z" style="fill:rgb(5,3,4);fill-rule:nonzero;"/>
        <path d="M178.461,507.725C181.505,506.064 183.724,501.774 184.789,494.384C186.253,484.405 189.826,477.816 195.551,473.951C198.79,471.791 200.813,467.941 201.832,462.968C203.363,455.449 201.55,448.98 196.931,447.552C192.219,446.125 186.934,449.45 182.318,457.17C177.602,465.078 174.778,473.984 172.376,482.027C169.861,491.521 169.411,497.145 170.25,501.773C171.209,506.999 174.964,509.657 178.461,507.725Z" style="fill:rgb(5,3,4);fill-rule:nonzero;"/>
        <path d="M489.213,675.435C489.173,675.425 489.141,675.415 489.102,675.405C488.933,675.049 488.806,674.699 488.594,674.336C484.628,667.411 480.217,663.754 471.259,662.57C465.713,661.848 461.185,658.993 457.116,654.322C456.153,653.212 455.277,652.106 454.35,651.008C449.891,645.703 444.596,642.562 438.774,641.747C434.917,641.216 432.126,641.747 430.758,643.628C424.653,651.252 445.983,675.953 466.012,682.848C474.432,685.748 480.699,685.492 487.3,685.363C491.415,685.277 492.539,683.278 491.157,679.711C490.615,678.313 489.85,676.85 489.213,675.435Z" style="fill:rgb(5,3,4);fill-rule:nonzero;"/>
        <path d="M130.338,160.816C129.476,161.864 128.917,163.008 128.481,164.152C126.617,169.047 127.453,174.094 127.95,178.544C129.283,185.654 130.836,192.089 138.952,197.577C150.436,205.234 170.758,205.309 180.977,198.742C186.427,195.18 187.513,191.081 184.864,186.237C182.58,182.091 175.875,180.059 168.633,178.174C164.017,176.969 160.186,175.291 158.265,172.869C156.831,171.059 155.793,169.19 154.603,167.327C153.21,165.149 151.95,162.934 148.868,160.929C142.587,156.828 133.726,156.695 130.338,160.816Z" style="fill:rgb(5,3,4);fill-rule:nonzero;"/>
        <path d="M214.222,503.1C216.165,503.998 217.794,502.089 219.307,499.568C222.458,494.307 224.217,487.987 225.837,482.178C227.608,475.311 228.884,469.174 229.692,463.084C231.338,451.02 229.698,443.835 223.358,441.206C219.146,439.539 215.981,442.201 214.182,449.376C212.775,455.055 212.572,460.608 212.624,466.227C212.702,473.906 212.93,481.783 211.332,490.879C211.055,492.465 211.139,494.179 211.225,495.778C211.408,499.302 212.25,502.192 214.222,503.1Z" style="fill:rgb(5,3,4);fill-rule:nonzero;"/>
        <path id="Curves4" serif:id="Curves" d="M622.81,467.466C617.531,470.474 612.377,471.766 607.919,472.181C595.597,473.218 592.485,466.103 597.872,454.989C599.026,452.446 600.519,449.813 602.746,447.035C604.207,445.218 605.901,443.6 607.663,442.274L607.658,442.249C609.651,440.939 611.707,439.847 613.546,439.089C615.434,438.473 617.181,438.343 618.56,438.838C620.218,439.442 621.011,440.79 621.975,441.999C623.023,443.309 624.264,444.445 626.722,444.47C630.387,444.505 634.935,441.916 638.41,437.433C640.978,434.123 642.944,430.806 645.351,427.385C649.168,421.964 654.205,417.921 658.868,416.59C660.152,416.225 661.066,416.314 661.987,416.415C666.521,416.913 673.017,412.637 677.893,405.607C680.728,401.525 681.977,398.006 683.564,394.326C686.896,386.653 694.161,380.249 700.696,379.742C705.394,379.374 707.624,381.69 706.259,386.841C703.085,398.905 695.537,412.636 683.358,426.671C675.659,435.538 665.712,441.431 656.47,446.164C647.231,450.885 638.931,455.605 630.853,461.735L630.792,461.733C628.3,463.77 625.61,465.659 622.81,467.466ZM658.237,478.26C663.861,474.857 670.731,472.046 677.632,470.753C695.478,467.405 708.6,468.309 711.92,476.866C713.794,481.529 710.215,485.09 698.451,490.31C695.342,491.688 694.176,493.029 692.745,494.534C685.7,501.943 674.807,507.498 664.899,509.146C664.086,509.28 663.328,509.386 662.596,509.478L662.593,509.485C660.441,509.624 658.111,509.645 655.875,509.542C652.269,508.855 651.123,506.561 651.881,502.374C653.179,499.34 651.497,497.1 648.342,495.41C644.408,493.269 645.153,489.457 649.683,484.848L650.093,484.542C652.568,482.235 655.302,480.159 658.237,478.26ZM535.887,457.057C539.098,455.788 542.33,454.9 545.545,454.259C556.833,451.984 563.424,454.86 560.497,462.785C558.989,466.764 559.963,469.654 561.529,472.411C563.165,475.285 563.334,478.652 559.833,483.047C554.602,489.676 543.26,495.663 533.883,496.689C527.572,497.405 525.116,496.254 525.561,492.997C525.902,490.578 526.164,488.197 524.959,486.218C523.875,484.427 522.143,483.033 518.668,482.77C516.805,482.634 514.856,482.84 512.966,483.297L512.952,483.342C510.854,483.752 508.863,484.506 507.021,485.739C504.767,487.122 502.986,488.879 502.146,490.809C501.078,493.336 501.444,495.556 502.826,497.571C504.082,499.401 505.599,501.154 507.087,502.939C508.678,504.847 509.628,506.927 509.312,509.34C508.793,513.569 503.349,517.199 495.997,517.849C488.423,518.526 481.889,515.528 483.082,511.609C484.468,506.938 481.412,504.931 474.656,503.436C467.01,501.661 465.929,495.8 470.958,491.132C473.243,488.98 476.269,487.224 479.733,485.65C483.165,484.095 486.699,482.535 490.218,480.833C495.813,478.132 500.751,474.862 503.954,470.713C505.051,469.296 506.621,467.902 508.395,466.576C511.421,464.315 514.737,462.795 518.474,462.473C519.304,462.401 520.142,462.292 520.985,462.158L521.409,462.245C524.369,462.115 529.481,460.14 535.887,457.057ZM558.437,437.751L558.789,437.609C553.689,435.27 553.17,429.389 557.022,421.44C558.177,418.898 559.669,416.265 561.896,413.486C566.592,407.643 573.7,403.853 577.709,405.289C579.369,405.894 580.161,407.242 581.125,408.45C582.173,409.76 583.414,410.896 585.872,410.921C589.537,410.957 594.084,408.367 597.56,403.884C600.128,400.574 602.094,397.257 604.501,393.837C608.318,388.415 613.354,384.372 618.018,383.042C619.302,382.676 620.216,382.766 621.137,382.866C625.671,383.364 632.167,379.089 637.043,372.059C639.877,367.977 641.127,364.458 642.714,360.778C646.046,353.105 653.311,346.701 659.846,346.193C664.543,345.826 666.774,348.142 665.409,353.292C662.235,365.356 654.687,379.088 642.508,393.123C634.809,401.989 624.863,407.882 615.621,412.615C606.017,417.523 597.43,422.431 589.051,428.918C586.921,430.078 573.356,437.392 567.837,438.544C565.216,439.091 561.465,438.477 558.437,437.751ZM520.863,525.327C524.672,526.553 527.857,528.173 531.542,529.571C535.431,531.03 539.671,532.365 546.224,531.401C558.449,529.621 567.193,523.341 565.607,517.964C564.997,515.787 563.689,513.826 562.959,511.721C561.642,507.895 563.356,503.746 568.802,498.914C572.272,495.835 576.651,493.098 582.89,491.139C590.207,488.834 596.148,488.643 596.582,492.041C597.317,497.987 602.855,501.687 610.023,505.026C613.585,506.684 615.504,509.17 614.829,512.299C613.791,519.441 603.854,527.474 589.799,532.057C584.24,533.884 578.609,535.359 573.159,536.797C563.364,539.38 556.892,542.636 553.4,547.136C551.549,549.534 549.867,551.946 547.058,554.179C543.019,557.394 537.391,558.944 530.77,558.662C524.224,558.382 519.481,556.462 518.854,553.419C518.09,549.652 513.419,547.594 508.083,545.561C506.344,544.894 504.796,544.178 503.431,543.418L503.353,543.466C501.558,542.279 499.872,540.941 498.289,539.464C496.17,537.072 495.322,534.404 495.649,531.53C495.973,528.83 498.239,526.472 503.378,524.916C507.562,523.647 511.612,523.453 515.49,524.035L515.492,524.03C517.314,524.419 519.108,524.852 520.863,525.327ZM483.369,552.82C483.372,553.474 483.302,554.136 483.144,554.805C481.519,561.646 470.857,567.698 458.496,567.925C456.133,567.975 453.75,567.793 451.305,567.262C443.662,565.565 439.875,561.724 441.858,558.593L441.888,558.574C443.027,556.676 446.117,555.548 448.084,552.629L448.041,552.615C448.659,551.674 449.059,550.647 449.12,549.485C449.378,545.128 445.869,542.004 438.678,540.064C433.922,538.764 431.046,536.478 429.147,533.746C427.918,531.968 426.957,530.157 425.999,528.357C424.754,526.019 423.045,523.837 420.481,521.88C416.938,519.17 412.737,518.471 409.331,520.089C407.634,520.901 406.397,522.044 405.117,523.13C402.288,525.526 398.973,527.083 393.501,524.855C388.197,522.683 384.399,518.337 383.869,513.974C382.999,506.665 390.271,502.014 399.146,503.631C404.041,504.492 408.158,504.107 412.167,502.266C419.603,498.91 428.625,500.365 435.958,505.25C438.88,507.205 441.308,509.352 442.75,511.873C444.669,515.229 447.803,518.207 452.531,520.464C457.976,523.041 460.604,526.176 461.235,530.07C461.393,531.031 461.696,531.992 461.916,532.958C462.819,536.837 465.94,540.035 472.99,542.23C477.025,543.46 479.977,545.436 481.684,547.805L481.734,547.788C482.411,549.268 482.919,551.001 483.369,552.82ZM534.62,576.913C541.394,577.553 547.921,579.522 552.406,582.659C555.235,584.644 557.054,586.873 558.426,589.205C561.283,594.034 566.303,598.314 575.607,601.626C584.644,604.8 586.499,609.759 588.087,613.992C588.814,620.156 579.418,625.357 568.37,625.398C560.097,625.452 553.658,622.586 552.546,618.683C551.743,615.827 553.287,613.243 553.986,610.553C555.368,605.316 549.782,601.405 539.853,600.532C532.055,599.821 526.519,601.199 522.924,603.91C521.416,605.05 520.409,606.354 519.043,607.52C516.455,609.735 512.581,610.146 507.411,608.421C501.35,606.4 495.522,604.194 490.088,601.805C488.799,601.232 487.76,600.643 486.945,600.048L486.834,600.168C485.832,599.028 484.69,596.97 486.687,594.752C487.921,593.381 493.727,591.983 497.455,591.204L497.404,591.238C499.06,590.92 500.72,590.591 502.344,590.203C506.68,589.166 509.711,587.467 510.798,584.9L510.856,584.768C512.358,582.723 515.839,578.329 518.75,577.267C521.205,576.371 526.436,576.439 530.186,576.632L530.02,576.684C530.566,576.687 531.112,576.698 531.659,576.718C532.648,576.755 533.637,576.82 534.62,576.913ZM483.671,603.994L483.646,604.027C483.719,604.047 483.786,604.059 483.859,604.078C490.229,605.819 496.174,608.33 497.912,612.061C500.325,617.201 506.229,621.473 514.08,625.68C521.533,629.641 523.479,633.622 520.771,637.494C520.059,638.522 519.098,639.484 517.945,640.307C511.564,644.912 506.467,645.102 494.289,640.936C494.292,640.937 494.241,640.985 494.238,640.99C494.373,640.523 494.059,640.307 493.35,640.312C493.503,639.827 492.707,639.565 491.991,639.287L492.094,639.301C488.201,636.154 485.222,632.96 483.093,629.771C480.573,625.992 477.109,622.456 472.572,618.942C472.308,618.737 472.069,618.528 471.822,618.32L471.768,618.375C469.509,616.105 467.937,614.347 467.997,613.809L467.803,613.772C465.514,609.921 466.093,606.317 469.636,604.484C471.634,603.438 474.09,602.908 477.048,602.995C479.108,603.251 481.545,603.606 483.671,603.994ZM465.017,626.548C473.691,630.025 478.71,634.005 481.067,639.891C482.836,644.227 483.054,648.178 482.262,651.779C481.82,653.806 480.382,655.249 477.048,655.348C471.726,655.521 465.899,652.281 463.252,647.762C461.792,645.261 460.819,642.857 459.277,640.399C457.422,637.429 454.99,634.653 451.265,632.384C449.31,631.04 447.036,630.129 444.529,629.535L444.715,629.475C441.503,628.587 439.504,629.106 439.113,631.013L439.339,630.96C438.863,632.078 437.414,634.881 434.818,635.022C432.184,635.165 429.216,633.797 427.385,632.767L427.581,632.752C426.278,631.835 425.032,630.772 423.858,629.587C422.205,627.912 420.97,626.203 419.966,624.525C418.491,622.064 417.595,619.771 416.67,617.057C415.408,613.058 414.919,609.062 417.695,606.727C421.253,603.737 431.545,604.916 440.24,608.811C443.242,610.173 445.716,611.822 447.674,613.869C449.621,615.903 451.492,617.97 453.643,620.011C454.58,620.899 455.603,621.748 456.724,622.535C458.804,624.184 461.441,625.579 465.017,626.548ZM355.999,603.52C357.274,605.873 358.315,608.068 358.935,609.938C361.198,616.857 361.309,621.391 360.853,625.65C360.511,629.005 360.093,632.352 359.808,635.879C359.624,638.266 355.944,637.901 351.624,635.046C343.754,629.9 336.879,619.053 336.046,610.772C335.696,607.43 335.217,604.125 333.792,600.24C332.382,596.389 330.48,592.742 328.321,589.183C318.317,582.376 310.429,573.182 309.65,560.985C307.688,557.35 306.148,553.655 305.631,549.897C305.111,546.128 305.17,542.701 307.502,541.838C309.563,541.088 311.871,542.214 314.218,544.425L317.969,548.515L317.939,548.552C323.079,554.69 327.902,561.607 333.04,568.812C338.964,577.126 345.021,585.68 350.873,594.929L350.946,594.957C352.694,597.823 354.385,600.685 355.999,603.52ZM372.629,603.865C368.706,598.624 364.56,593.805 359.388,589.345C354.62,585.223 352.852,580.39 352.227,576.563C352.014,574.442 352.137,573.001 352.827,571.98C354.088,570.149 356.309,570.365 359.528,572.426C363.356,574.873 366.393,578.219 368.62,581.93C373.377,589.855 380.171,597.197 388.533,604.042C393.341,607.979 397.58,612.229 400.18,617.128C402.707,621.884 402.746,625.972 399.854,626.73C396.949,627.491 391.224,624.83 385.915,620.058C384.802,619.058 383.758,618.029 382.769,616.981L382.507,616.522C379.189,613.088 376.108,608.94 373.217,604.225L372.629,603.865ZM368.292,535.688C366.263,536.805 363.825,537.274 360.757,536.815C355.572,536.036 354.448,536.909 354.332,541.79C354.266,546.291 354.508,550.917 353.078,554.673C351.163,560.003 348.485,559.782 342.181,553.117C337.821,548.449 335.896,543.791 336.449,539.282C336.495,538.913 336.554,538.553 336.604,538.187L336.473,538.225L337.721,531.957C338.789,528.028 341.111,525.358 344.892,524.363C349.289,523.204 352.127,520.424 353.765,516.143C353.969,515.609 354.26,515.131 354.518,514.634C356.374,511.065 359.583,509.604 364.648,511.063C365.414,511.445 366.183,511.821 366.958,512.199C373.705,518.276 374.847,521.279 373.695,529.442C373.589,529.647 373.482,529.853 373.378,530.06C373.147,530.432 372.925,530.809 372.701,531.184L372.797,531.2C371.5,532.901 369.925,534.323 368.292,535.688ZM494.238,640.99C494.238,640.99 494.238,640.99 494.238,640.99C494.238,640.99 494.238,640.99 494.238,640.99Z" style="fill:rgb(5,3,4);fill-rule:nonzero;"/>
        <path d="M3.132,221.99C2.821,223.423 2.733,224.847 3.087,226.118C4.757,232.122 7.841,237.598 5.861,244.541C4.806,248.26 3.925,251.955 2.988,255.541C3.161,256.734 3.133,257.845 3.492,258.818C4.954,262.779 11.808,263.972 19.584,261.966C27.883,259.819 35.56,255.109 38.609,250.152C39.729,248.32 40.171,246.575 40.598,244.866C41.12,242.787 41.308,240.782 41.61,238.752C41.899,236.811 43.455,234.705 46.835,232.813C62.905,223.899 59.649,211.09 47.653,207.366C40.176,205.157 30.734,205.141 19.377,208.755C8.408,212.256 4.171,217.136 3.132,221.99Z" style="fill:rgb(5,3,4);fill-rule:nonzero;"/>
        <path d="M157.853,507.467C156.234,504.863 155.68,501.534 156.514,496.751C157.352,491.961 157.251,488.019 155.674,485.515C155.565,485.376 155.458,485.241 155.348,485.104C155.101,485.063 154.852,485.024 154.605,484.985C153.749,485.164 152.893,485.35 152.026,485.548C146.828,489.503 142.384,497.584 141.312,505.623C140.649,510.557 140.722,515.13 140.776,519.876C140.852,526.488 140.895,533.361 139.459,541.482C138.667,545.954 138.912,550.091 139.825,553.662C141.205,559.039 144.292,559.501 147.44,554.403C150.916,548.827 154.069,542.761 156.672,535.941C161.474,523.362 161.954,514.18 157.853,507.467Z" style="fill:rgb(5,3,4);fill-rule:nonzero;"/>
        <path d="M385.694,568.778C385.066,566.088 384.727,563.493 384.07,560.833C382.216,553.256 375.347,547.288 367.113,545.842C361.148,544.789 359.491,549.167 364.03,555.094C365.375,556.834 366.957,558.521 368.588,560.143C372.506,564.026 374.622,567.573 373.633,571.056C373.746,572.182 373.797,573.378 374.061,574.656C375.264,580.783 381.922,589.152 388.77,593.031C392.843,595.359 396.285,595.653 396.645,593.296C397.342,588.937 397.151,584.398 391.306,578.439C388.097,575.139 386.427,571.908 385.694,568.778Z" style="fill:rgb(5,3,4);fill-rule:nonzero;"/>
        <path d="M708.436,206.437C701.084,200.939 689.479,207.128 676.119,219.425C668.934,226.036 663.344,235.107 660.829,242.792C658.11,251.171 659.129,256.173 664.35,255.858C667.92,255.619 670.535,256.626 671.042,259.887C673.544,266.164 677.583,265.862 685.67,258.73C693.198,252.082 699.492,241.599 701.539,231.582C701.955,229.547 702.233,227.791 704.139,224.975C711.348,214.313 712.496,209.397 708.436,206.437Z" style="fill:rgb(5,3,4);fill-rule:nonzero;"/>
        <path d="M707.334,289.674C698.957,285.923 688.991,294.506 678.653,309.434C673.092,317.46 669.628,327.536 668.859,335.585C668.044,344.356 670.136,349.013 675.16,347.561C678.591,346.544 681.363,346.954 682.573,350.024C686.391,355.6 690.265,354.419 696.591,345.688C702.479,337.551 706.319,325.942 706.12,315.72C706.08,313.644 705.966,311.87 707.208,308.704C711.903,296.721 711.946,291.673 707.334,289.674Z" style="fill:rgb(5,3,4);fill-rule:nonzero;"/>
        <path d="M657.8,676.816C642.64,672.053 634.925,673.439 634.277,681.616C635.022,683.129 635.913,684.664 635.75,686.079C637.784,689.995 634.671,691.59 631.103,692.983C624.871,695.386 627.287,701.392 635.693,706.469C639.25,708.605 642.95,710.021 646.747,710.83C658.891,713.42 666.001,710.663 671.83,705.541C671.914,705.408 671.998,705.276 672.082,705.145C675.292,700.271 676.851,694.864 673.851,688.576C671.433,683.481 666.293,679.484 657.8,676.816Z" style="fill:rgb(5,3,4);fill-rule:nonzero;"/>
        <path d="M688.202,619.067C685.784,613.974 680.645,609.977 672.152,607.308C656.992,602.545 649.276,603.931 648.628,612.108C649.374,613.62 650.265,615.155 650.101,616.571C652.136,620.486 649.023,622.082 645.455,623.475C639.223,625.878 641.638,631.884 650.045,636.96C653.602,639.097 657.302,640.513 661.099,641.321C673.243,643.911 680.353,641.154 686.182,636.032C686.266,635.9 686.35,635.768 686.433,635.636C689.643,630.764 691.203,625.356 688.202,619.067Z" style="fill:rgb(5,3,4);fill-rule:nonzero;"/>
        <path d="M432.49,568.619C428.637,567.511 424.883,566.221 421.221,564.929C416.72,563.332 415.26,561.775 415.525,559.028C415.632,557.989 415.972,557.026 416.08,555.992C416.264,554.28 416.046,552.535 413.258,550.862C410.616,549.269 408.223,549.111 406.052,549.591C401.548,550.59 398.539,552.669 397.295,555.966C396.54,557.979 396.552,560.406 398.443,563.245C399.804,565.234 401.415,567.199 403.319,569.117C403.505,569.282 403.691,569.445 403.877,569.61C403.886,569.661 403.896,569.71 403.905,569.76C403.835,569.742 403.766,569.725 403.696,569.706C404.212,569.838 404.687,569.978 404.359,570.376C404.362,570.376 404.439,570.366 404.443,570.366C406.269,571.423 408.104,572.505 410.009,573.497C417.003,577.139 424.25,579.559 431.119,578.844C436.532,578.272 438.645,574.665 436.164,571.035C435.39,569.896 434.368,569.156 432.49,568.619Z" style="fill:rgb(5,3,4);fill-rule:nonzero;"/>
        <path d="M196.945,544.51C193.976,545.358 191.749,549.424 191.223,555.252C191.026,557.473 191.25,558.691 192.43,558.949C194.152,559.331 195.842,560.194 197.47,561.587C200.349,564.07 200.877,567.053 199.31,572.529C198.188,576.478 196.9,580.258 195.834,584.413C193.938,591.761 195.049,599.404 198.939,604.916C202.089,609.393 205.06,609.308 207.507,605.953C212.383,599.304 213.221,588.303 213.065,577.407C212.187,556.15 205.855,542.164 196.945,544.51Z" style="fill:rgb(5,3,4);fill-rule:nonzero;"/>
        <path d="M37.082,161.727C29.847,167.503 25.21,173.805 24.114,180.328C23.023,186.545 31.164,188.01 43.361,184.41C45.35,183.827 47.227,183.11 48.915,182.361C59.763,177.561 64.312,172.382 63.13,166.311C62.173,161.527 63.033,156.878 68.244,152.503C71.55,149.725 72.156,146.558 71.463,143.332C70.719,139.694 68.145,136.392 61.929,133.933C56.355,131.726 48.05,131.595 42.51,133.635C37.408,135.51 36.06,138.383 38.921,142.063C40.1,143.581 41.561,145.042 43.054,146.479C46.628,149.934 46.366,153.382 42.609,156.963C40.933,158.563 39.06,160.148 37.082,161.727Z" style="fill:rgb(5,3,4);fill-rule:nonzero;"/>
        <path d="M104.727,679.789C96.517,683.53 88.548,685.902 80.713,687.515C76.68,688.333 72.946,691.803 69.852,698.652C67.708,703.427 66.407,708.749 65.898,714.104L119.305,714.104C120.263,711.046 120.948,707.275 121.254,702.887C121.735,695.786 120.742,690.255 118.629,686.094C114.821,678.586 109.793,677.457 104.727,679.789Z" style="fill:rgb(5,3,4);fill-rule:nonzero;"/>
        <path d="M543.946,692.366C537.535,684.588 525.838,680.492 516.93,682.023C508.578,683.477 506.285,690.091 512.375,698.608C516.043,703.747 517.224,707.853 516.841,711.79C516.762,712.525 516.778,713.3 516.872,714.104L571.886,714.104C569.254,711.59 566.083,709.248 562.276,707.193C553.921,702.674 548.456,697.791 543.946,692.366Z" style="fill:rgb(5,3,4);fill-rule:nonzero;"/>
        <path d="M388.43,682.979C387.809,682.075 387.019,681.163 386.281,680.273C382.211,675.337 379.893,674.01 378.598,676.153C375.924,680.742 377.05,688.492 384.311,700.746C386.999,705.216 389.964,709.694 393.209,714.104L421.375,714.104C420.002,713.098 418.633,712.08 417.3,711.18C406.331,703.799 396.329,694.529 388.43,682.979Z" style="fill:rgb(5,3,4);fill-rule:nonzero;"/>
        <path d="M405.285,12.44C407.125,16.814 407.314,19.541 406.107,22.248C405.382,23.86 404.565,25.315 403.672,26.594C401.791,29.27 401.374,32.856 403.072,38.491C404.173,42.17 403.897,44.934 402.591,46.735C401.536,48.186 400.396,49.503 399.482,51.155C398.036,53.766 398.418,57.373 400.274,61.389C402.775,66.795 406.222,69.768 409.857,68.173C416.62,65.185 422.019,58.153 425.165,49.294C429.465,34.229 427.607,18.536 419.882,2.437C419.506,1.651 419.104,0.883 418.719,0.103L395.984,0.103C399.558,2.246 402.727,6.367 405.285,12.44Z" style="fill:rgb(5,3,4);fill-rule:nonzero;"/>
        <path d="M558.905,31C566.724,28.64 572.409,9.169 568.577,0.103L545.294,0.103C545.35,2.568 545.418,5.011 545.472,7.428C545.845,22.777 551.125,33.399 558.905,31Z" style="fill:rgb(5,3,4);fill-rule:nonzero;"/>
        <path d="M284.709,21.702C287.672,24.39 290.281,25.597 292.764,26.482C298.059,28.382 303.599,33.48 309.963,42.777C315.246,50.501 320.398,55.111 325.17,57.436C328.567,59.134 331.326,59.276 333.561,58.076C334.399,57.627 334.771,56.808 334.114,54.33C332.615,48.692 333.534,45.831 335.351,44.235C337.534,42.32 340.713,42.558 344.564,44.278C347.201,45.46 349.873,46.69 351.858,46.04C355.214,44.928 354.564,39.496 350.108,32.791C347.041,28.17 343.705,24.995 340.282,22.242C336.898,19.521 333.657,17.529 330.482,15.619C324.946,12.297 319.848,7.027 315.06,0.103L271.78,0.103C274.98,9.249 279.392,16.884 284.709,21.702Z" style="fill:rgb(5,3,4);fill-rule:nonzero;"/>
        <path d="M481.222,13.832C484.958,11.649 487.442,13.19 490.095,18.731C497.914,31.507 503.197,14.426 510.833,7.112C512.714,4.978 514.392,2.599 515.87,0.103L470.744,0.103C470.922,1.59 471.09,3.059 471.212,4.532C472.026,13.103 475.109,17.305 481.222,13.832Z" style="fill:rgb(5,3,4);fill-rule:nonzero;"/>
        <path d="M24.93,114.699C27.876,110.075 32.921,106.583 40.564,104.535C56.055,100.413 58.291,93.104 55.593,84.355C54.44,81.216 52.962,78.587 50.722,76.018C45.47,70.042 37.716,66.478 29.068,66.36C21.332,66.25 16.635,69.258 15.004,75.634C13.677,80.895 9.807,85.246 3.576,89.172C2.393,89.918 1.195,90.674 0,91.439L0,125.993C7.722,126.008 15.879,123.797 19.933,120.294C21.995,118.519 23.702,116.625 24.93,114.699Z" style="fill:rgb(5,3,4);fill-rule:nonzero;"/>
        <path d="M695.14,665.666C695.885,667.178 696.776,668.714 696.612,670.129C698.647,674.045 695.534,675.64 691.966,677.033C685.734,679.436 688.149,685.441 696.556,690.518C700.112,692.655 703.813,694.07 707.61,694.88C709.913,695.371 712.033,695.668 714,695.795L714,659.546C701.926,656.498 695.717,658.378 695.14,665.666Z" style="fill:rgb(5,3,4);fill-rule:nonzero;"/>
        <path id="Curves5" serif:id="Curves" d="M604.719,44.649L604.646,44.654C605.098,45.844 605.527,47.039 605.905,48.237C608.985,57.88 611.574,60.947 614.808,62.433C620.159,64.711 624.92,69.306 629.249,75.334C636.056,86.078 645.362,92.681 650.599,107.439C651.632,110.845 652.532,114.011 653.24,116.828L653.104,116.824C653.543,119.157 653.898,121.656 654.151,124.355C655,134.17 652.67,144.73 648.687,153.958C642.278,169.347 637.175,175.356 627.291,159.187C623.104,151.667 620.632,142.843 619.105,134.94C618.46,131.629 617.929,128.454 617.371,125.392C617.017,123.064 616.497,120.626 615.814,118.079L615.863,118.061C614.318,111.708 612.232,107.656 609.043,106.183C606.126,104.852 603.748,108.056 603.164,115.488C603.123,116.044 603.089,116.606 603.061,117.174L603.047,117.179C602.86,121.256 602.817,125.172 602.969,128.868L602.975,129.666C603.188,144.574 601.935,157.763 595.749,157.773C586.724,157.967 579.701,144.813 573.404,132.991C572.913,132.256 572.447,131.447 572.006,130.574C570.548,126.984 569.501,123.721 568.816,120.747C566.928,110.649 568.066,97.781 575.201,87.072C582.704,76.12 585.297,67.89 582.31,53.822C581.898,51.994 581.487,50.114 581.081,48.212L580.973,48.239C580.722,46.521 580.412,44.857 580.063,43.358L580.072,43.356C579.72,41.604 579.374,39.841 579.048,38.061C577.389,28.993 577.246,20.969 579.911,16.534C581.527,16.49 583.143,16.442 584.754,16.397C590.916,20.92 596.984,28.677 601.429,37.407C602.59,39.847 603.685,42.26 604.719,44.649ZM617.994,39.007L618.18,39.005C612.859,35.027 609.107,29.144 608.04,18.421C607.655,14.558 607.877,10.602 608.83,6.564C609.415,4.109 610.181,2.02 611.063,0.348L640.158,0.348C642.58,3.649 643.761,9.705 643.804,18.596C643.848,27.498 641.605,33.61 637.488,37.463C636.626,38.274 635.747,38.942 634.856,39.5L635.023,39.512C628.863,42.088 623.177,41.975 617.994,39.007ZM687.752,69.645C687.733,69.084 687.742,68.494 687.784,67.87C687.996,64.843 688.192,61.861 688.389,58.923C688.327,58.644 688.268,58.365 688.201,58.085C687.771,55.168 686.205,53.408 684.122,52.209C679.486,49.506 678.251,45.25 680.922,39.197C685.841,28.017 687.512,17.328 688.802,7.233C689.102,4.905 689.569,2.533 690.23,0.103L714,0.103L714,31.65C713.426,33.692 712.882,35.73 713.14,37.602C712.566,40.969 713.185,43.824 713.458,46.904C713.989,52.918 712.176,58.853 708.153,64.036C704.692,68.496 701.065,72.46 696.881,74.87C694.32,76.327 692.206,76.57 690.654,75.821L690.694,75.914C690.261,75.667 689.889,75.4 689.609,75.113C688.564,74.044 688.028,71.687 687.752,69.645ZM689.788,102.141L689.777,102.158C691.272,105.309 692.312,108.295 693.087,110.945C693.083,111.754 693.198,112.387 693.565,112.778C695.193,118.666 697.396,121.326 702.195,119.533C704.891,118.389 707.909,115.696 711.093,112.704C712.152,111.709 713.125,110.914 714,110.346L714,136.101C712.115,139.942 709.75,143.636 706.959,146.805C699.322,154.119 694.039,171.199 686.22,158.423C683.568,152.882 681.083,151.341 677.348,153.524C671.234,156.997 668.151,152.795 667.337,144.224C666.744,137.083 665.091,130.09 666.343,120.295C666.506,119.047 666.718,117.845 666.97,116.685C667.444,114.848 667.965,112.956 668.539,110.998L668.622,110.98C670.992,104.481 674.509,99.553 677.35,95.64C679.522,91.943 682.265,91.409 685.498,95.145C687.003,97.436 688.43,99.769 689.788,102.141ZM544.961,111.292L544.854,111.133C544.065,121.976 545.291,131.472 547.842,143.194C548.856,147.972 548.732,152.965 548.269,157.519C547.279,165.341 545.226,168.794 541.222,166.559C538.594,165.047 535.687,161.926 532.838,158.132C528.102,151.893 523.994,146.624 520.307,142.842C509.99,132.142 507.619,118.53 501.767,100.716C501.003,97.459 500.1,94.234 498.909,90.999C495.173,82.192 495.84,70.529 502.335,64.592C506.867,60.418 508.49,55.837 508.08,47.607C507.223,32.214 511.408,24.993 520.52,26.312C530.243,26.977 538.919,47.892 544.1,60.884C544.807,62.387 545.497,63.846 546.141,65.306C547.14,67.978 548.026,70.449 548.735,72.696C549.875,77.409 550.077,82.818 548.41,90.147C547.656,93.19 547.03,96.055 546.515,98.791C545.617,102.838 545.084,107 544.961,111.292Z" style="fill:rgb(5,3,4);fill-rule:nonzero;"/>
        <path d="M169.896,653.883C165.027,660.91 160.086,666.704 154.818,670.54C151.462,672.979 147.971,677.514 145.582,682.422C140.179,693.775 137.951,705.567 139.309,713.057C139.375,713.426 139.453,713.765 139.532,714.104L150.234,714.104C150.258,714.067 150.282,714.037 150.306,714.001C157.508,703.106 162.706,701.74 167.151,709.584C169.694,714.055 173.282,711.479 176.771,706.022C180.107,700.819 181.795,694.123 182.195,686.268C182.84,673.541 181.257,663.688 178.908,655.113C176.735,647.214 174.952,646.648 169.896,653.883Z" style="fill:rgb(5,3,4);fill-rule:nonzero;"/>
        <path d="M294.692,691.045C290.137,686.323 284.521,683.682 278.493,683.349C275.405,683.18 272.491,683.385 269.24,682.337C267.209,682.323 265.121,681.367 263.037,680.442C258.124,678.772 253.295,676.381 248.492,674.252C242.563,671.621 236.665,669.143 231.583,669.171C222.721,669.227 215.757,671.492 209.873,674.77C207.783,675.922 206.814,678.542 208.491,682.992C210.182,687.482 213.44,690.177 216.565,692.483C223.241,697.414 229.545,700.376 235.709,702.091C245.333,704.758 255.474,707.878 265.644,714.104L278.703,714.104C278.994,713.805 279.28,713.49 279.557,713.143C281.041,711.251 283.006,709.953 285.955,709.943C286.241,709.917 286.525,709.898 286.811,709.877C289.69,710.491 292.614,711.11 295.58,711.752C302.647,713.267 306.331,710.178 303.806,703.748C302.018,699.263 298.612,695.106 294.692,691.045Z" style="fill:rgb(5,3,4);fill-rule:nonzero;"/>
        <path d="M692.799,524.678C680.331,523.768 666.559,528.393 657.918,535.744C656.454,536.999 654.924,538.295 654.129,539.5C649.331,546.802 644.226,547.98 630.709,549.98C627.541,550.44 624.397,550.863 621.282,551.396C615.719,552.352 610.314,553.526 605.606,555.482C596.56,559.247 587.721,562.825 582.426,567.102C573.257,574.545 570.189,579.919 585.785,584.145C591.831,585.722 595.669,588.22 598.426,591.203C600.306,593.228 602.608,595.156 606.646,596.504C613.865,598.932 622.469,597.701 627.262,593.356C630.072,590.815 630.333,588.272 629.752,585.84C629.044,582.862 627.839,579.986 627.213,577.038C625.459,568.815 643.145,559.441 662.635,557.83C676.43,556.765 684.87,560.572 684.091,568.359C684.101,569.264 684.092,570.174 684.136,571.072C684.439,576.584 693.305,578.188 706.411,574.425C709.291,573.592 711.799,572.6 714,571.485L714,541.272C711.415,537.916 709.1,534.511 706.981,531.072C704.833,527.562 700.293,525.241 692.799,524.678Z" style="fill:rgb(5,3,4);fill-rule:nonzero;"/>
    </g>
</svg>
